<svg width="9" height="319" viewBox="0 0 9 319" fill="none" xmlns="http://www.w3.org/2000/svg">
<path d="M4.98887 0.345177C4.79361 0.149915 4.47702 0.149915 4.28176 0.345177L1.09978 3.52716C0.904519 3.72242 0.904519 4.039 1.09978 4.23426C1.29504 4.42953 1.61163 4.42953 1.80689 4.23426L4.63531 1.40584L7.46374 4.23426C7.659 4.42953 7.97559 4.42953 8.17085 4.23426C8.36611 4.039 8.36611 3.72242 8.17085 3.52716L4.98887 0.345177ZM4.13531 0.69873L4.13532 2.30265L5.13532 2.30265L5.13531 0.69873L4.13531 0.69873ZM4.13532 8.71831L4.13532 11.9261L5.13532 11.9261L5.13532 8.71831L4.13532 8.71831ZM4.13532 18.3418L4.13532 21.5497L5.13532 21.5497L5.13532 18.3418L4.13532 18.3418ZM4.13532 27.9653L4.13532 31.1732L5.13532 31.1732L5.13532 27.9653L4.13532 27.9653ZM4.13532 37.5888L4.13532 40.7966L5.13532 40.7966L5.13532 37.5888L4.13532 37.5888ZM4.13532 47.2123L4.13532 50.4202L5.13532 50.4202L5.13532 47.2123L4.13532 47.2123ZM4.13532 56.8358L4.13532 60.0437L5.13532 60.0437L5.13532 56.8358L4.13532 56.8358ZM4.13532 66.4593L4.13532 69.6672L5.13532 69.6672L5.13532 66.4593L4.13532 66.4593ZM4.13532 76.0828L4.13532 79.2906L5.13532 79.2906L5.13532 76.0828L4.13532 76.0828ZM4.13532 85.7063L4.13532 88.9141L5.13532 88.9141L5.13532 85.7063L4.13532 85.7063ZM4.13532 95.3298L4.13532 98.5376L5.13532 98.5376L5.13532 95.3298L4.13532 95.3298ZM4.13532 104.953L4.13532 108.161L5.13532 108.161L5.13532 104.953L4.13532 104.953ZM4.13532 114.577L4.13532 117.785L5.13532 117.785L5.13532 114.577L4.13532 114.577ZM4.13532 124.2L4.13532 127.408L5.13532 127.408L5.13532 124.2L4.13532 124.2ZM4.13532 133.824L4.13532 137.032L5.13532 137.032L5.13532 133.824L4.13532 133.824ZM4.13532 143.447L4.13532 146.655L5.13532 146.655L5.13532 143.447L4.13532 143.447ZM4.13532 153.071L4.13532 156.279L5.13532 156.279L5.13532 153.071L4.13532 153.071ZM4.13532 162.694L4.13532 165.902L5.13532 165.902L5.13532 162.694L4.13532 162.694ZM4.13532 172.318L4.13532 175.526L5.13532 175.526L5.13532 172.318L4.13532 172.318ZM4.13532 181.941L4.13532 185.149L5.13532 185.149L5.13532 181.941L4.13532 181.941ZM4.13532 191.565L4.13533 194.773L5.13533 194.773L5.13532 191.565L4.13532 191.565ZM4.13533 201.188L4.13533 204.396L5.13533 204.396L5.13533 201.188L4.13533 201.188ZM4.13533 210.812L4.13533 214.02L5.13533 214.02L5.13533 210.812L4.13533 210.812ZM4.13533 220.435L4.13533 223.643L5.13533 223.643L5.13533 220.435L4.13533 220.435ZM4.13533 230.059L4.13533 233.267L5.13533 233.267L5.13533 230.059L4.13533 230.059ZM4.13533 239.682L4.13533 242.89L5.13533 242.89L5.13533 239.682L4.13533 239.682ZM4.13533 249.306L4.13533 252.514L5.13533 252.514L5.13533 249.306L4.13533 249.306ZM4.13533 258.929L4.13533 262.137L5.13533 262.137L5.13533 258.929L4.13533 258.929ZM4.13533 268.553L4.13533 271.761L5.13533 271.761L5.13533 268.553L4.13533 268.553ZM4.13533 278.176L4.13533 281.384L5.13533 281.384L5.13533 278.176L4.13533 278.176ZM4.13533 287.8L4.13533 291.008L5.13533 291.008L5.13533 287.8L4.13533 287.8ZM4.13533 297.423L4.13533 300.631L5.13533 300.631L5.13533 297.423L4.13533 297.423ZM4.13533 307.047L4.13533 310.255L5.13533 310.255L5.13533 307.047L4.13533 307.047ZM4.13533 316.67L4.13533 318.274L5.13533 318.274L5.13533 316.67L4.13533 316.67Z" fill="white" fill-opacity="0.5"/>
</svg>
