<svg width="8" height="320" viewBox="0 0 8 320" fill="none" xmlns="http://www.w3.org/2000/svg">
<path d="M4.64658 0.936242C4.45132 0.740979 4.13474 0.740979 3.93948 0.936242L0.757496 4.11822C0.562234 4.31348 0.562234 4.63007 0.757496 4.82533C0.952758 5.02059 1.26934 5.02059 1.4646 4.82533L4.29303 1.9969L7.12146 4.82533C7.31672 5.02059 7.6333 5.02059 7.82856 4.82533C8.02383 4.63007 8.02383 4.31348 7.82856 4.11822L4.64658 0.936242ZM3.79303 1.28979L3.79303 2.89873L4.79303 2.89873L4.79303 1.28979L3.79303 1.28979ZM3.79303 9.33447L3.79303 12.5523L4.79303 12.5523L4.79303 9.33447L3.79303 9.33447ZM3.79303 18.9881L3.79303 22.2059L4.79303 22.2059L4.79303 18.9881L3.79303 18.9881ZM3.79303 28.6417L3.79303 31.8595L4.79303 31.8595L4.79303 28.6417L3.79303 28.6417ZM3.79303 38.2953L3.79303 41.5132L4.79303 41.5132L4.79303 38.2953L3.79303 38.2953ZM3.79303 47.9489L3.79303 51.1668L4.79303 51.1668L4.79303 47.9489L3.79303 47.9489ZM3.79303 57.6025L3.79303 60.8204L4.79303 60.8204L4.79303 57.6025L3.79303 57.6025ZM3.79303 67.2561L3.79303 70.474L4.79303 70.474L4.79303 67.2561L3.79303 67.2561ZM3.79303 76.9097L3.79303 80.1276L4.79303 80.1276L4.79303 76.9097L3.79303 76.9097ZM3.79303 86.5633L3.79303 89.7812L4.79303 89.7812L4.79303 86.5633L3.79303 86.5633ZM3.79303 96.2169L3.79303 99.4348L4.79303 99.4348L4.79303 96.2169L3.79303 96.2169ZM3.79304 105.871L3.79304 109.088L4.79304 109.088L4.79304 105.871L3.79304 105.871ZM3.79304 115.524L3.79304 118.742L4.79304 118.742L4.79304 115.524L3.79304 115.524ZM3.79304 125.178L3.79304 128.396L4.79304 128.396L4.79304 125.178L3.79304 125.178ZM3.79304 134.831L3.79304 138.049L4.79304 138.049L4.79304 134.831L3.79304 134.831ZM3.79304 144.485L3.79304 147.703L4.79304 147.703L4.79304 144.485L3.79304 144.485ZM3.79304 154.139L3.79304 157.356L4.79304 157.356L4.79304 154.139L3.79304 154.139ZM3.79304 163.792L3.79304 167.01L4.79304 167.01L4.79304 163.792L3.79304 163.792ZM3.79304 173.446L3.79304 176.664L4.79304 176.664L4.79304 173.446L3.79304 173.446ZM3.79304 183.099L3.79304 186.317L4.79304 186.317L4.79304 183.099L3.79304 183.099ZM3.79304 192.753L3.79304 195.971L4.79304 195.971L4.79304 192.753L3.79304 192.753ZM3.79304 202.407L3.79304 205.624L4.79304 205.624L4.79304 202.407L3.79304 202.407ZM3.79304 212.06L3.79304 215.278L4.79304 215.278L4.79304 212.06L3.79304 212.06ZM3.79304 221.714L3.79304 224.932L4.79304 224.932L4.79304 221.714L3.79304 221.714ZM3.79304 231.367L3.79304 234.585L4.79304 234.585L4.79304 231.367L3.79304 231.367ZM3.79304 241.021L3.79304 244.239L4.79304 244.239L4.79304 241.021L3.79304 241.021ZM3.79304 250.674L3.79304 253.892L4.79304 253.892L4.79304 250.674L3.79304 250.674ZM3.79304 260.328L3.79304 263.546L4.79304 263.546L4.79304 260.328L3.79304 260.328ZM3.79304 269.982L3.79304 273.2L4.79304 273.2L4.79304 269.982L3.79304 269.982ZM3.79304 279.635L3.79304 282.853L4.79304 282.853L4.79304 279.635L3.79304 279.635ZM3.79304 289.289L3.79304 292.507L4.79304 292.507L4.79304 289.289L3.79304 289.289ZM3.79305 298.942L3.79305 302.16L4.79305 302.16L4.79305 298.942L3.79305 298.942ZM3.79305 308.596L3.79305 311.814L4.79305 311.814L4.79305 308.596L3.79305 308.596ZM3.79305 318.25L3.79305 319.859L4.79305 319.859L4.79305 318.25L3.79305 318.25Z" fill="white" fill-opacity="0.5"/>
</svg>
