<svg width="8" height="320" viewBox="0 0 8 320" fill="none" xmlns="http://www.w3.org/2000/svg">
<path d="M4.56504 0.348839C4.36978 0.153577 4.0532 0.153577 3.85793 0.348839L0.675953 3.53082C0.480691 3.72608 0.480691 4.04266 0.675953 4.23793C0.871215 4.43319 1.1878 4.43319 1.38306 4.23793L4.21149 1.4095L7.03991 4.23793C7.23518 4.43319 7.55176 4.43319 7.74702 4.23793C7.94228 4.04266 7.94228 3.72608 7.74702 3.53082L4.56504 0.348839ZM3.71149 0.702393L3.71149 2.31133L4.71149 2.31133L4.71149 0.702393L3.71149 0.702393ZM3.71149 8.74706L3.71149 11.9649L4.71149 11.9649L4.71149 8.74706L3.71149 8.74706ZM3.71149 18.4007L3.71149 21.6185L4.71149 21.6185L4.71149 18.4007L3.71149 18.4007ZM3.71149 28.0543L3.71149 31.2721L4.71149 31.2721L4.71149 28.0543L3.71149 28.0543ZM3.71149 37.7079L3.71149 40.9258L4.71149 40.9258L4.71149 37.7079L3.71149 37.7079ZM3.71149 47.3615L3.71149 50.5794L4.71149 50.5794L4.71149 47.3615L3.71149 47.3615ZM3.71149 57.0151L3.71149 60.233L4.71149 60.233L4.71149 57.0151L3.71149 57.0151ZM3.71149 66.6687L3.71149 69.8866L4.71149 69.8866L4.71149 66.6687L3.71149 66.6687ZM3.71149 76.3223L3.71149 79.5402L4.71149 79.5402L4.71149 76.3223L3.71149 76.3223ZM3.71149 85.9759L3.71149 89.1938L4.71149 89.1938L4.71149 85.9759L3.71149 85.9759ZM3.71149 95.6295L3.71149 98.8474L4.71149 98.8474L4.71149 95.6295L3.71149 95.6295ZM3.71149 105.283L3.71149 108.501L4.71149 108.501L4.71149 105.283L3.71149 105.283ZM3.71149 114.937L3.71149 118.155L4.71149 118.155L4.71149 114.937L3.71149 114.937ZM3.71149 124.59L3.71149 127.808L4.71149 127.808L4.71149 124.59L3.71149 124.59ZM3.71149 134.244L3.71149 137.462L4.71149 137.462L4.71149 134.244L3.71149 134.244ZM3.71149 143.898L3.71149 147.115L4.71149 147.115L4.71149 143.898L3.71149 143.898ZM3.71149 153.551L3.71149 156.769L4.71149 156.769L4.71149 153.551L3.71149 153.551ZM3.7115 163.205L3.7115 166.423L4.7115 166.423L4.7115 163.205L3.7115 163.205ZM3.7115 172.858L3.7115 176.076L4.7115 176.076L4.7115 172.858L3.7115 172.858ZM3.7115 182.512L3.7115 185.73L4.7115 185.73L4.7115 182.512L3.7115 182.512ZM3.7115 192.166L3.7115 195.383L4.7115 195.383L4.7115 192.166L3.7115 192.166ZM3.7115 201.819L3.7115 205.037L4.7115 205.037L4.7115 201.819L3.7115 201.819ZM3.7115 211.473L3.7115 214.691L4.7115 214.691L4.7115 211.473L3.7115 211.473ZM3.7115 221.126L3.7115 224.344L4.7115 224.344L4.7115 221.126L3.7115 221.126ZM3.7115 230.78L3.7115 233.998L4.7115 233.998L4.7115 230.78L3.7115 230.78ZM3.7115 240.434L3.7115 243.651L4.7115 243.651L4.7115 240.434L3.7115 240.434ZM3.7115 250.087L3.7115 253.305L4.7115 253.305L4.7115 250.087L3.7115 250.087ZM3.7115 259.741L3.7115 262.959L4.7115 262.959L4.7115 259.741L3.7115 259.741ZM3.7115 269.394L3.7115 272.612L4.7115 272.612L4.7115 269.394L3.7115 269.394ZM3.7115 279.048L3.7115 282.266L4.7115 282.266L4.7115 279.048L3.7115 279.048ZM3.7115 288.701L3.7115 291.919L4.7115 291.919L4.7115 288.701L3.7115 288.701ZM3.7115 298.355L3.7115 301.573L4.7115 301.573L4.7115 298.355L3.7115 298.355ZM3.7115 308.009L3.7115 311.227L4.7115 311.227L4.7115 308.009L3.7115 308.009ZM3.7115 317.662L3.7115 319.271L4.7115 319.271L4.7115 317.662L3.7115 317.662Z" fill="white" fill-opacity="0.5"/>
</svg>
