<?xml version="1.0" encoding="utf-8"?>
<!-- Generator: Adobe Illustrator 26.0.3, SVG Export Plug-In . SVG Version: 6.00 Build 0)  -->
<svg version="1.1" xmlns="http://www.w3.org/2000/svg" xmlns:xlink="http://www.w3.org/1999/xlink" x="0px" y="0px"
	 viewBox="0 0 418 560.7" style="enable-background:new 0 0 418 560.7;" xml:space="preserve">
<style type="text/css">
	.st0{fill:#FFFFFF;fill-opacity:0.5;}
	.st1{fill:#3B61F4;stroke:#FFFFFF;stroke-miterlimit:10;}
	.st2{fill:none;stroke:#9FB3FF;stroke-miterlimit:10;}
	.st3{fill:none;stroke:#FFFFFF;stroke-miterlimit:10;}
	.st4{fill:#3B61F4;fill-opacity:0.2;}
	.st5{opacity:0.4;}
	.st6{fill:#1E3076;}
	.st7{fill:none;stroke:#9FB3FF;stroke-linejoin:round;}
	.st8{fill:#3B61F4;stroke:#9FB3FF;stroke-miterlimit:10;}
	.st9{fill:#EAEEFF;}
	.st10{fill-rule:evenodd;clip-rule:evenodd;fill:#EAEEFF;}
	.st11{fill:#3B61F4;fill-opacity:0.6;}
	.st12{fill:none;stroke:#FFFFFF;}
	.st13{fill:#9FB3FF;}
	.st14{fill-rule:evenodd;clip-rule:evenodd;fill:#9FB3FF;}
	.st15{fill:#3B61F4;stroke:#9FB3FF;stroke-width:0.7471;stroke-miterlimit:10;}
	.st16{fill:#EC6A5F;}
	.st17{fill:#FCBA01;}
	.st18{fill:#62C655;}
	.st19{fill:#B6B6FF;}
	.st20{fill:#FEFEFF;stroke:#FFFFFF;stroke-linejoin:round;}
	.st21{fill:none;stroke:#FDFDFF;stroke-linejoin:round;}
</style>
<g id="Calque_2">
</g>
<g id="Calque_1">
	<g>
		<path class="st0" d="M411.7,139.8c-0.2-0.2-0.5-0.2-0.7,0l-3.2,3.2c-0.2,0.2-0.2,0.5,0,0.7c0.2,0.2,0.5,0.2,0.7,0l2.8-2.8l2.8,2.8
			c0.2,0.2,0.5,0.2,0.7,0c0.2-0.2,0.2-0.5,0-0.7L411.7,139.8z M410.8,140.1v1.6h1v-1.6H410.8z M410.8,148.2v3.2h1v-3.2H410.8z
			 M410.8,157.8v3.2h1v-3.2H410.8z M410.8,167.5v3.2h1v-3.2H410.8z M410.8,177.1v3.2h1v-3.2H410.8z M410.8,186.8v3.2h1v-3.2H410.8z
			 M410.8,196.4v3.2h1v-3.2H410.8z M410.8,206.1v3.2h1v-3.2H410.8z M410.8,215.7v3.2h1v-3.2H410.8z M410.8,225.4v3.2h1v-3.2H410.8z
			 M410.8,235v3.2h1V235H410.8z M410.8,244.7v3.2h1v-3.2H410.8z M410.8,254.3v3.2h1v-3.2H410.8z M410.8,264v3.2h1V264H410.8z
			 M410.8,273.7v3.2h1v-3.2H410.8z M410.8,283.3v3.2h1v-3.2H410.8z M410.8,293v3.2h1V293H410.8z M410.8,302.6v3.2h1v-3.2H410.8z
			 M410.8,312.3v3.2h1v-3.2H410.8z M410.8,321.9v3.2h1v-3.2H410.8z M410.8,331.6v3.2h1v-3.2H410.8z M410.8,341.2v3.2h1v-3.2H410.8z
			 M410.8,350.9v3.2h1v-3.2H410.8z M410.8,360.5v3.2h1v-3.2H410.8z M410.8,370.2v3.2h1v-3.2H410.8z M410.8,379.8v3.2h1v-3.2H410.8z
			 M410.8,389.5v3.2h1v-3.2H410.8z M410.8,399.2v3.2h1v-3.2H410.8z M410.8,408.8v3.2h1v-3.2H410.8z M410.8,418.5v3.2h1v-3.2H410.8z
			 M410.8,428.1v3.2h1v-3.2H410.8z M410.8,437.8v3.2h1v-3.2H410.8z M410.8,447.4v3.2h1v-3.2H410.8z M410.8,457.1v1.6h1v-1.6H410.8z"
			/>
	</g>
	<g>
		<path class="st0" d="M170.6,0.1c-0.2-0.2-0.5-0.2-0.7,0l-3.2,3.2c-0.2,0.2-0.2,0.5,0,0.7c0.2,0.2,0.5,0.2,0.7,0l2.8-2.8L173,4
			c0.2,0.2,0.5,0.2,0.7,0c0.2-0.2,0.2-0.5,0-0.7L170.6,0.1z M169.7,0.5v1.6h1V0.5H169.7z M169.7,8.5v3.2h1V8.5H169.7z M169.7,18.2
			v3.2h1v-3.2H169.7z M169.7,27.9v3.2h1v-3.2H169.7z M169.7,37.5v3.2h1v-3.2H169.7z M169.7,47.2v3.2h1v-3.2H169.7z M169.7,56.8V60h1
			v-3.2H169.7z M169.7,66.5v3.2h1v-3.2H169.7z M169.7,76.1v3.2h1v-3.2H169.7z M169.7,85.8V89h1v-3.2H169.7z M169.7,95.4v3.2h1v-3.2
			H169.7z M169.7,105.1v3.2h1v-3.2H169.7z M169.7,114.7v3.2h1v-3.2H169.7z M169.7,124.4v3.2h1v-3.2H169.7z M169.7,134v3.2h1V134
			H169.7z M169.7,143.7v3.2h1v-3.2H169.7z M169.7,153.3v3.2h1v-3.2H169.7z M169.7,163v3.2h1V163H169.7z M169.7,172.7v3.2h1v-3.2
			H169.7z M169.7,182.3v3.2h1v-3.2H169.7z M169.7,192v3.2h1V192H169.7z M169.7,201.6v3.2h1v-3.2H169.7z M169.7,211.3v3.2h1v-3.2
			H169.7z M169.7,220.9v3.2h1v-3.2H169.7z M169.7,230.6v3.2h1v-3.2H169.7z M169.7,240.2v3.2h1v-3.2H169.7z M169.7,249.9v3.2h1v-3.2
			H169.7z M169.7,259.5v3.2h1v-3.2H169.7z M169.7,269.2v3.2h1v-3.2H169.7z M169.7,278.8v3.2h1v-3.2H169.7z M169.7,288.5v3.2h1v-3.2
			H169.7z M169.7,298.2v3.2h1v-3.2H169.7z M169.7,307.8v3.2h1v-3.2H169.7z M169.7,317.5v1.6h1v-1.6H169.7z"/>
	</g>
	<path class="st1" d="M398.3,448.7c-0.3,2.9-1.4,5.9-3.4,7.7c-0.2,0.2-0.4,0.4-0.6,0.6l-0.1,0.1c-0.2,0.2-0.4,0.3-0.6,0.5l-0.1,0.1
		c-0.2,0.2-0.4,0.3-0.6,0.4l-0.2,0.1c-0.3,0.2-0.5,0.3-0.8,0.5l-129.6,75.8c-3.9,2.3-8.2,3.6-12.7,3.6s-9-0.5-12.9-2.7L26.6,413.7
		c-0.3-0.2-0.6-0.4-0.9-0.6l-0.2-0.2c-0.2-0.1-0.4-0.3-0.6-0.4l-0.2-0.2l-0.6-0.5l-0.2-0.2c-0.5-0.5-0.9-1-1.3-1.5
		c-0.2-0.3-0.4-0.5-0.5-0.8l0-0.1c-0.2-0.3-0.3-0.5-0.4-0.8c-0.9-1.8-1.3-3.8-1.3-5.8v4.8c0,2.2,0.6,4.5,1.7,6.4
		c1.1,1.9,2.7,3.6,4.7,4.7l209.1,120.7c3.9,2.3,8.4,3.5,12.9,3.5c4.5,0,9-1.2,12.9-3.5L392,463.6c1.8-1,3.3-2.4,4.4-4.2
		c1.1-1.7,1.9-3.7,1.9-5.8c0,0,0-1.3,0-2.4V448.7z"/>
	<path class="st2" d="M22.2,409.4v4.9"/>
	<path class="st2" d="M24.6,412.3v5"/>
	<path class="st2" d="M27,414v4.8"/>
	<path class="st2" d="M29.4,415.5v4.9"/>
	<path class="st2" d="M31.8,416.8v4.9"/>
	<path class="st2" d="M34.2,418.1v4.9"/>
	<path class="st2" d="M36.6,419.6v4.8"/>
	<path class="st2" d="M39,420.9v4.9"/>
	<path class="st2" d="M41.4,422.1v5.1"/>
	<path class="st2" d="M43.8,423.7v5"/>
	<path class="st2" d="M46.1,424.9v4.8"/>
	<path class="st2" d="M48.5,426.4v4.9"/>
	<path class="st2" d="M50.9,428v4.8"/>
	<path class="st2" d="M53.3,429.2v4.8"/>
	<path class="st2" d="M55.7,430.4v4.9"/>
	<path class="st2" d="M58.1,432v4.8"/>
	<path class="st2" d="M60.5,433.5v4.8"/>
	<path class="st2" d="M62.9,434.7v4.8"/>
	<path class="st2" d="M65.3,436.1v4.9"/>
	<path class="st2" d="M67.8,437.3v5"/>
	<path class="st2" d="M70.1,439v4.8"/>
	<path class="st2" d="M72.5,440.2v4.9"/>
	<path class="st2" d="M74.9,441.8v4.9"/>
	<path class="st2" d="M77.3,443v4.9"/>
	<path class="st2" d="M79.7,444.4v4.8"/>
	<path class="st2" d="M82.1,445.7v4.8"/>
	<path class="st2" d="M84.5,447.1v4.9"/>
	<path class="st2" d="M86.9,448.4v4.8"/>
	<path class="st2" d="M89.3,450v4.8"/>
	<path class="st2" d="M91.7,451.2v4.8"/>
	<path class="st2" d="M94.1,452.9v4.5"/>
	<path class="st2" d="M96.5,454.4v4.5"/>
	<path class="st2" d="M98.9,455.8v4.5"/>
	<path class="st2" d="M101.3,457.1v4.6"/>
	<path class="st2" d="M103.7,458.5v4.7"/>
	<path class="st2" d="M106.1,459.9v4.8"/>
	<path class="st2" d="M108.5,461.2v4.3"/>
	<path class="st2" d="M110.9,462.5v4.5"/>
	<path class="st2" d="M113.3,463.8v4.5"/>
	<path class="st2" d="M115.7,465.3v4.5"/>
	<path class="st2" d="M118.1,466.6v4.6"/>
	<path class="st2" d="M120.5,467.9v4.6"/>
	<path class="st2" d="M122.9,469.3v4.6"/>
	<path class="st2" d="M125.3,470.8v4.5"/>
	<path class="st2" d="M127.7,472.2v4.5"/>
	<path class="st2" d="M130.1,473.5v4.6"/>
	<path class="st2" d="M132.5,474.8v4.7"/>
	<path class="st2" d="M134.9,476.2v4.4"/>
	<path class="st2" d="M137.3,477.7v4.6"/>
	<path class="st2" d="M139.6,479v4.6"/>
	<path class="st2" d="M142.1,480.5v4.3"/>
	<path class="st2" d="M144.4,481.9v4.5"/>
	<path class="st2" d="M146.9,483.2v4.7"/>
	<path class="st2" d="M149.3,484.8v4.3"/>
	<path class="st2" d="M151.6,485.9v4.4"/>
	<path class="st2" d="M154,487.4v4.4"/>
	<path class="st2" d="M156.4,488.6v4.6"/>
	<path class="st2" d="M158.9,490v4.6"/>
	<path class="st2" d="M161.2,491.4v4.5"/>
	<path class="st2" d="M163.6,493.1v4.3"/>
	<path class="st2" d="M166,494.5v4.4"/>
	<path class="st2" d="M168.4,495.9v4.4"/>
	<path class="st2" d="M170.8,497v4.5"/>
	<path class="st2" d="M173.2,498.7v4.4"/>
	<path class="st2" d="M175.6,499.9v4.6"/>
	<path class="st2" d="M178,501.2v4.5"/>
	<path class="st2" d="M180.4,502.8v4.4"/>
	<path class="st2" d="M182.8,503.9v4.6"/>
	<path class="st2" d="M185.2,505.3v4.6"/>
	<path class="st2" d="M187.6,506.9v4.2"/>
	<path class="st2" d="M190,508.1v4.4"/>
	<path class="st2" d="M192.4,509.9v4.2"/>
	<path class="st2" d="M194.8,511.1v4.4"/>
	<path class="st2" d="M197.2,512.5v4.3"/>
	<path class="st2" d="M199.6,513.9v4.2"/>
	<path class="st2" d="M202,515.1v4.6"/>
	<path class="st2" d="M204.4,516.9v4"/>
	<path class="st2" d="M206.8,517.8v4.5"/>
	<path class="st2" d="M209.2,519.2v4.5"/>
	<path class="st2" d="M211.6,520.9v4.4"/>
	<path class="st2" d="M214,522.3v4.3"/>
	<path class="st2" d="M216.4,523.5v4.5"/>
	<path class="st2" d="M218.8,524.8v4.3"/>
	<path class="st2" d="M221.2,526.3v4.3"/>
	<path class="st2" d="M223.6,527.4v4.6"/>
	<path class="st2" d="M226,529.3v4.1"/>
	<path class="st2" d="M228.4,530.6v4.1"/>
	<path class="st2" d="M230.7,532v4.3"/>
	<path class="st2" d="M233.1,533.4v4.3"/>
	<path class="st2" d="M235.5,534.9v4.3"/>
	<path class="st2" d="M237.9,536.3v4.1"/>
	<path class="st2" d="M240.3,537v4.3"/>
	<path class="st2" d="M242.7,537.9v3.9"/>
	<path class="st2" d="M245.1,537.8v4.3"/>
	<path class="st2" d="M247.5,538.2v4.2"/>
	<path class="st2" d="M249.9,538.2v4.2"/>
	<path class="st2" d="M252.3,538.1v4.1"/>
	<path class="st2" d="M254.7,537.5v4.2"/>
	<path class="st2" d="M257.1,536.8v4.5"/>
	<path class="st2" d="M259.5,535.8v4.4"/>
	<path class="st2" d="M261.9,534.6v4.3"/>
	<path class="st2" d="M264.3,533.2v4.3"/>
	<path class="st2" d="M266.7,530.8v5.3"/>
	<path class="st2" d="M269.1,530.5v4.4"/>
	<path class="st2" d="M271.5,529.1v4.5"/>
	<path class="st2" d="M273.9,527.8v4.4"/>
	<path class="st2" d="M276.3,526.4v4.4"/>
	<path class="st2" d="M278.7,524.9v4.4"/>
	<path class="st2" d="M281.1,523.6v4.2"/>
	<path class="st2" d="M283.5,522.1v4.3"/>
	<path class="st2" d="M285.9,520.8v4.2"/>
	<path class="st2" d="M288.3,519.4v4.4"/>
	<path class="st2" d="M290.7,518v4.2"/>
	<path class="st2" d="M293.1,516.5v4.3"/>
	<path class="st2" d="M295.5,515.3v4.1"/>
	<path class="st2" d="M297.9,513.9v4.6"/>
	<path class="st2" d="M300.3,512.3v4.3"/>
	<path class="st2" d="M302.7,510.9v4.6"/>
	<path class="st2" d="M305.1,509.3v4.5"/>
	<path class="st2" d="M307.5,508.1v4.4"/>
	<path class="st2" d="M309.9,506.8v4.5"/>
	<path class="st2" d="M312.3,505.4v4.5"/>
	<path class="st2" d="M314.7,504.1v4.3"/>
	<path class="st2" d="M317.1,502.6v4.4"/>
	<path class="st2" d="M319.5,501.2v4.5"/>
	<path class="st2" d="M321.9,499.9v4.3"/>
	<path class="st2" d="M324.3,498.4v4.6"/>
	<path class="st2" d="M326.6,497.1v4.4"/>
	<path class="st2" d="M329,495.8v4.3"/>
	<path class="st2" d="M331.4,494.3v4.4"/>
	<path class="st2" d="M333.8,492.8v4.5"/>
	<path class="st2" d="M336.2,491.5v4.7"/>
	<path class="st2" d="M338.6,490v4.5"/>
	<path class="st2" d="M341,488.6v4.5"/>
	<path class="st2" d="M343.4,487.2v4.5"/>
	<path class="st2" d="M345.8,485.9v4.5"/>
	<path class="st2" d="M348.2,484.5v4.4"/>
	<path class="st2" d="M350.6,483.1v4.5"/>
	<path class="st2" d="M353,481.6v4.6"/>
	<path class="st2" d="M355.4,480.3v4.7"/>
	<path class="st2" d="M357.8,478.8v4.5"/>
	<path class="st2" d="M360.2,477.3v4.5"/>
	<path class="st2" d="M362.6,476v4.6"/>
	<path class="st2" d="M365,474.7v4.5"/>
	<path class="st2" d="M367.4,473.2v4.7"/>
	<path class="st2" d="M369.8,471.9v4.6"/>
	<path class="st2" d="M372.2,470.4v4.6"/>
	<path class="st2" d="M374.6,469v4.6"/>
	<path class="st2" d="M377,467.8v4.3"/>
	<path class="st2" d="M379.4,466.4v4.3"/>
	<path class="st2" d="M381.8,464.5v4.8"/>
	<path class="st2" d="M384.2,463.2v5"/>
	<path class="st2" d="M386.6,461.9v4.9"/>
	<path class="st2" d="M389,460.4v5"/>
	<path class="st2" d="M391.4,459.2v4.9"/>
	<path class="st2" d="M393.8,457.7v4.6"/>
	<path class="st2" d="M396.2,454.9v4.8"/>
	<path class="st3" d="M398.3,448.7c-0.3,2.9-1.4,5.9-3.4,7.7c-0.2,0.2-0.4,0.4-0.6,0.6l-0.1,0.1c-0.2,0.2-0.4,0.3-0.6,0.5l-0.1,0.1
		c-0.2,0.2-0.4,0.3-0.6,0.4l-0.2,0.1c-0.3,0.2-0.5,0.3-0.8,0.5l-129.6,75.8c-3.9,2.3-8.2,3.6-12.7,3.6c-4.5,0-9-0.5-12.9-2.7
		L26.6,413.7c-0.3-0.2-0.6-0.4-0.9-0.6l-0.2-0.2c-0.2-0.1-0.4-0.3-0.6-0.4l-0.2-0.2l-0.6-0.5l-0.2-0.2c-0.5-0.5-0.9-1-1.3-1.5
		c-0.2-0.3-0.4-0.5-0.5-0.8l0-0.1c-0.2-0.3-0.3-0.5-0.4-0.8c-0.9-1.8-1.3-3.8-1.3-5.8v4.8c0,2.2,0.6,4.5,1.7,6.4
		c1.1,1.9,2.7,3.6,4.7,4.7l209.1,120.7c3.9,2.3,8.4,3.5,12.9,3.5c4.5,0,9-1.2,12.9-3.5L392,463.6c1.8-1,3.3-2.4,4.4-4.2
		c1.1-1.7,1.9-3.7,1.9-5.8c0,0,0-1.3,0-2.4V448.7z"/>
	<g>
		<path class="st4" d="M262.4,535.1l130-76c2-1.1,3.6-2.8,4.7-4.7c1.1-2,1.7-4.2,1.7-6.4s-0.4-4.5-1.5-6.8c-1.2-2.4-2.9-4.3-4.9-5.4
			L181.6,312c-3.9-2.3-7.3-3.3-11.8-3.3c-6.4,0-10.4,3.2-14.3,5.4L26.2,391.8c-1.9,1.1-3.6,2.8-4.7,4.7c-1.1,2-1.7,4.2-1.7,6.4
			c0,2.3,0.6,4.5,1.7,6.4c1.1,2,2.7,3.6,4.7,4.7l210.1,121.9c3.9,2.3,8.5,3.3,13.1,3.3C253.9,539.2,258.4,537.4,262.4,535.1z"/>
		<path class="st3" d="M392.1,458.7L392.1,458.7c1.9-1.1,3.4-2.6,4.5-4.5c1.1-1.9,1.7-4,1.7-6.2c0-2.2-0.4-4.4-1.5-6.5
			c-1.1-2.3-2.8-4.1-4.7-5.2l0,0L181.4,312.5c0,0,0,0,0,0c-3.8-2.2-7.2-3.2-11.6-3.2c-5.3,0-8.9,2.2-12.2,4.2
			c-0.6,0.4-1.2,0.8-1.8,1.1c0,0,0,0,0,0L26.5,392.2l0,0l0,0c-1.9,1.1-3.4,2.6-4.5,4.5c-1.1,1.9-1.7,4-1.7,6.2
			c0,2.2,0.6,4.3,1.7,6.2s2.6,3.4,4.5,4.5h0l210.1,121.9h0c3.8,2.2,8.4,3.2,12.8,3.2c4.4,0,8.8-1.8,12.7-4.1L392.1,458.7z
			 M392.1,458.7l-130,76L392.1,458.7z"/>
	</g>
	<g class="st5">
		<path class="st6" d="M155.5,315.3L86.1,357l149.7,87c3.9,2.3,8.3,3.4,12.8,3.4s8.9-1.2,12.8-3.4l71.7-41.8L182,313.4
			c-4-2.4-7.5-3.7-11.8-3.7C163.8,309.6,159.7,312.8,155.5,315.3z"/>
	</g>
	<path class="st7" d="M3.4,400.3l249.4,144.6"/>
	<path class="st7" d="M3.5,406l171.5-103"/>
	<path class="st7" d="M416.2,450.4L165.4,303.1"/>
	<path class="st7" d="M244.3,545.1l172-100.5"/>
	<g>
		<path class="st8" d="M364.3,448.3c-0.1,0.6-0.3,1.2-0.6,1.6c-0.3,0.5-0.8,0.9-1.3,1.2l-40.1,23.6c-1.2,0.7-2.6,1.1-4.1,1.1
			c-1.4,0-2.8-0.4-4.1-1.1l-41-23.7c-0.6-0.4-0.9-0.7-1.3-1.2c-0.3-0.5-0.6-1-0.7-1.6l-0.1,0v1.5c0,0.4,0,0.7,0,1.1
			c0,1,0.2,1.4,0.5,2c0.3,0.5,1,1,1.5,1.3l41,23.7c1.2,0.7,2.6,1.1,4.1,1.1c1.4,0,2.8-0.4,4.1-1.1l40.1-23.6
			c0.5-0.3,1.1-0.7,1.4-1.2c0.4-0.5,0.5-1,0.5-1.8L364.3,448.3L364.3,448.3z"/>
		<path class="st8" d="M314.1,474.7l-41-23.7c-0.6-0.4-1.1-0.9-1.5-1.5c-0.4-0.6-0.5-1.3-0.5-2s0.2-1.4,0.5-2
			c0.4-0.6,0.9-1.1,1.5-1.5l39.9-23.2c1.2-0.7,2.6-1.1,4-1.1c1.4,0,2.8,0.4,4,1.1l41.3,23.3c0.6,0.3,1.1,0.9,1.5,1.5
			c0.4,0.6,0.6,1.3,0.6,2c0,0.7-0.2,1.4-0.5,2c-0.3,0.6-0.9,1.1-1.5,1.5l-40.1,23.6c-1.2,0.7-2.6,1.1-4.1,1.1
			C316.7,475.8,315.3,475.5,314.1,474.7z"/>
	</g>
	<g>
		<path class="st8" d="M230.2,446.7c-0.1,0.6-0.3,1.2-0.6,1.6c-0.3,0.5-0.8,0.9-1.3,1.2l-40.1,23.6c-1.2,0.7-2.6,1.1-4.1,1.1
			c-1.4,0-2.8-0.4-4.1-1.1l-41-23.7c-0.6-0.4-1-0.8-1.3-1.2c-0.3-0.4-0.6-1-0.7-1.6h0v1.8c0,0.3,0,0.6,0,0.6c0,1,0.2,1.6,0.6,2.1
			c0.3,0.5,0.9,0.9,1.4,1.2l41,23.7c1.2,0.7,2.6,1.1,4.1,1.1c1.4,0,2.8-0.4,4.1-1.1l40.1-23.6c0.5-0.3,1.1-0.8,1.4-1.3
			c0.3-0.5,0.5-0.9,0.5-1.8v-1.4L230.2,446.7L230.2,446.7z"/>
		<path class="st8" d="M180,473.1l-41-23.7c-0.6-0.4-1.1-0.9-1.5-1.5s-0.5-1.3-0.5-2s0.2-1.4,0.5-2s0.9-1.1,1.5-1.5l39.9-23.2
			c1.2-0.7,2.6-1.1,4-1.1c1.4,0,2.8,0.4,4,1.1l41.3,23.3c0.6,0.3,1.1,0.9,1.5,1.5c0.4,0.6,0.6,1.3,0.6,2c0,0.7-0.2,1.4-0.5,2
			c-0.3,0.6-0.9,1.1-1.5,1.5l-40.1,23.6c-1.2,0.7-2.6,1.1-4.1,1.1C182.7,474.2,181.3,473.9,180,473.1z"/>
		<path class="st9" d="M203.1,447.2c0.2-0.2,0.4-0.5,0.5-0.9c0.1-0.3,0.1-0.7,0-1c-0.1-0.4-0.2-0.7-0.4-1.1
			c-0.2-0.3-0.5-0.5-0.9-0.7l-0.1,0c-0.8-0.5-1.8-0.7-2.7-0.5c-0.5,0-1.1,0.2-1.5,0.6c-0.3,0.2-0.4,0.6-0.2,0.8c0,0,0,0.1,0.2,0.2
			c-0.1,0-0.2,0.1-0.3,0.1c-0.9,0.1-1.8-0.2-2.5-0.6l-0.1,0c-0.5-0.4-0.8-0.8-0.8-1.7c0.1-0.5,0.9-1.2,2.4-2.1
			c0.6-0.3,1.2-0.8,1.7-1.3c0.1-0.1,0.2-0.3,0.2-0.4c0-0.2,0-0.3,0-0.5c-0.1-0.3-0.2-0.5-0.4-0.7l-1.2-0.9c-0.4-0.3-0.8-0.4-1.3-0.3
			l-0.5-0.3c-0.2-0.1-0.6-0.3-0.9-0.4c-0.6-0.2-1.1-0.3-1.7-0.3c-0.4,0-0.9,0.1-1.3,0.2c-0.2,0.1-0.4,0.3-0.5,0.4v0.1
			c0.4,0,0.8,0.1,1.1,0.4c0.6,0.3,1.1,0.9,0.8,1.3c-0.3,0.6-1,0.9-1.6,1.2c-1.9,0.8-3.3,1-4.7,0.4c-0.3-0.1-0.5-0.2-0.7-0.3
			c-0.9-0.5-1.2-1-0.9-1.6l0.2-0.1c0.1,0,0.2,0,0.2,0c0.5,0.1,1,0.1,1.4-0.1c0.5-0.2,0.9-0.5,1-0.9c0.1-0.6-0.2-1.2-0.9-1.6
			c-0.4-0.2-0.8-0.4-1.3-0.5c-1.2-0.4-3-0.4-5,0.1c-1.6,0.3-3.1,0.9-4.6,1.6c-1.3,0.6-2.5,1.3-3.6,2.1c-1.2,0.7-2.3,1.7-3.2,2.8
			c-0.7,0.8-1.3,1.7-1.8,2.7c-0.1,0.2-0.3,0.4-0.3,0.6h0.2c0.2,0,0.4,0,0.6-0.1c0.8,0,1.6-0.1,2.4-0.2c0.6-0.1,1.1-0.2,1.7-0.3
			l0.3-0.1l0.1,0.1c0,0.1-0.1,0.2-0.2,0.3c-0.1,0.1-0.2,0.2-0.3,0.2c-0.4,0.2-0.9,0.4-1.3,0.5c-0.9,0.3-1.9,0.5-2.8,0.7
			c0,0.1-0.2,0.2-0.3,0.2c-0.4,0-0.7,0.1-1,0.3l0.1,0c0.3,0.1,0.7,0.2,1,0.2c1.2,0,2.5,0,3.7-0.2c1.5-0.2,3-0.4,4.4-0.8l0.3-0.1
			l0.1,0.1c0,0.1,0.1,0.1,0.1,0.2c-0.2,0.2-0.4,0.3-0.6,0.5c-0.8,0.4-2.2,0.7-3.1,1c-1.8,0.4-3.7,0.7-5.5,0.9c-0.2,0-0.3,0-0.5,0
			c0,0.1,0,0.2,0.1,0.3l0,0.3c0.1,0.9,0.3,1.9,0.7,2.7c0.4,1.1,1,2.1,1.7,3c1.4,0.5,3.9,0.8,5.3,1c1.6,0.2,3.1,0.4,4.7,0.4h0.5
			c0.2,0,0.5,0,0.6,0c0.2,0,0.3-0.1,0.4-0.2V455c0.3-1.1,0.9-2.2,1.6-3.2c0.5-0.5,1-1.3,1.7-1.8c0.2-0.2,0.5-0.3,0.8-0.4h0.3
			c0.1,0,0.2,0,0.3,0.1l-0.1,0.1c-0.6,0.8-1,1.7-1.4,2.5c-0.4,1.2-0.4,1.9-0.4,2.1c0,0.1,0,0.2,0.1,0.3c0.1,0.1,0.1,0.2,0.2,0.2
			l0.1,0c0.2,0,0.3-0.2,0.5-0.5c0-0.1,0.1-0.1,0.2-0.2c0.4-0.6,0.8-1.1,1.2-1.6c0.2-0.3,0.5-0.5,0.8-0.7c0.3-0.2,0.6-0.3,0.9-0.3
			l0.2,0l-0.1,0.1c-0.2,0.3-0.4,0.7-0.6,1.1c-0.1,0.2-0.3,1.1-0.4,1.3c0,0.2,0,0.3-0.1,0.3v0.1c0.3,0,0.6-0.1,0.9-0.2h0.2
			c1.4-0.2,3-0.6,4.5-1c1.7-0.4,3.3-1.1,4.8-1.8c1.3-0.6,2.5-1.3,3.7-2.1C201.3,449.1,202.4,448.2,203.1,447.2L203.1,447.2z"/>
	</g>
	<g>
		<path class="st8" d="M119.4,362.3c-0.1,0.6-0.3,1.2-0.6,1.6c-0.3,0.5-0.8,0.9-1.3,1.2l-40.1,23.6c-1.2,0.7-2.6,1.1-4.1,1.1
			c-1.4,0-2.8-0.4-4.1-1.1l-41-23.7c-0.5-0.3-1-0.7-1.3-1.2c-0.3-0.5-0.6-1-0.7-1.6l-0.1,0v1.8c0,0.3,0,0.5,0,0.7
			c0,1.1,0.1,1.5,0.4,2c0.3,0.5,1,0.9,1.6,1.2l41,23.7c1.2,0.7,2.6,1.1,4.1,1.1c1.4,0,2.8-0.4,4.1-1.1l40.1-23.6
			c0.5-0.3,1.2-0.8,1.5-1.3c0.4-0.6,0.5-1.1,0.5-1.8L119.4,362.3L119.4,362.3z"/>
		<path class="st8" d="M69.2,388.8l-41-23.7c-0.6-0.4-1.1-0.9-1.5-1.5c-0.4-0.6-0.5-1.3-0.5-2c0-0.7,0.2-1.4,0.5-2
			c0.4-0.6,0.9-1.1,1.5-1.5l39.9-23.2c1.2-0.7,2.6-1.1,4-1.1c1.4,0,2.8,0.4,4,1.1l41.3,23.3c0.6,0.3,1.1,0.9,1.5,1.5
			c0.4,0.6,0.6,1.3,0.6,2c0,0.7-0.2,1.4-0.5,2c-0.3,0.6-0.9,1.1-1.5,1.5l-40.1,23.6c-1.2,0.7-2.6,1.1-4.1,1.1
			C71.9,389.9,70.5,389.5,69.2,388.8z"/>
	</g>
	<path class="st10" d="M88,362.9c-3.1-0.4-3.8-0.7-7.2-1.2c1.8,0,3.7-0.2,5.5-0.4c-2-1.1-5.1-2.5-7.5-3.4c2.7,0.5,7.2,1.8,9.3,2.7
		c0.2-0.6-1.3-3.7-1.8-4.4c2.5,1.7,4.7,4.2,5.3,5.7c0.8,0.2,1.5,0.6,2.8,1.2c-0.8,0.1-1.1,0.3-3.1,0.1c-0.6,0.7-6.2,3.1-8.1,3.5
		C85.2,365.5,87.6,363.9,88,362.9z M56.3,364.8c-0.7-0.9-1-1.6-1-2.6c1-0.3,2.1-0.5,3.2-0.6c-1.1-0.4-1.8-0.8-2.8-1.1
		c0.5-1,1.3-1.8,2.6-2.9c-1.8,0.8-3.1,1.5-4.1,2.4c-0.8-0.3-1.6-0.5-2.5-0.7c0.3,0.8,0.6,1.5,1.1,2.2c-0.6,0.8-0.9,1.7-0.9,2.6
		c0.5-0.5,1.2-1,1.9-1.3C54.5,363.6,55.3,364.3,56.3,364.8z M75.5,357.1c-0.9,0.1-1.7,0.3-2.6,0.5c2.4,1.9,3.2,4.1,3.2,4.1
		c-2-1.7-3.4-2.4-4.4-2.9c-1-0.5-1.3-0.5-1.3-0.5c-2.2,0.5-5.2,1.8-5.3,1.8c0.7-0.9,2.3-2.6,2.3-2.6c-2-0.3-7.7-0.4-7.7-0.4
		c4.9-1,8.1-0.9,8.1-0.9c0-0.7-1.2-1.7-2.2-2.3c1.3,0.4,2.5,0.9,3.6,1.5c0.6,0.3,1.2,0.7,1.7,1C72.8,356.4,74.9,356.8,75.5,357.1z
		 M64.3,367.1c-1.2,0.1-2.2,0.2-3.4,0.2c-1.1-0.3-2.1-0.8-3.1-1.3c0.3,0.5,0.7,1,1.1,1.4c-1,0-2-0.1-3.1-0.2c1.5,0.5,3,0.9,4.5,1.1
		c0.4,0.3,0.9,0.5,1.4,0.7c0.2-0.2,0.5-0.5,0.7-0.7c1.6,0.1,3,0.1,4.5,0.1c-1.3-0.1-2.6-0.3-3.9-0.5
		C63.5,367.6,63.9,367.3,64.3,367.1z"/>
	<path class="st9" d="M326.4,447.6c0.8-0.5,1.5-1.2,1.8-1.9l3.3-6.3c0.3-0.5,0.7-1,1.1-1.4l-0.5,0.1c-2.7,0.5-4.9,1.7-5.7,3.3
		l-2.6,5c-0.8,1.5-3,2.8-5.7,3.3l-0.5,0.1c0.5-0.4,0.8-0.8,1.1-1.4l2.4-4.6l1.6-3c0.3-0.5,0.7-1,1.1-1.4l-0.5,0.1
		c-2.7,0.5-4.8,1.7-5.7,3.3l-2.6,5c-0.8,1.5-3,2.8-5.7,3.3l-0.5,0.1c0.5-0.4,0.8-0.8,1.1-1.4l3.3-6.3c0.5-0.8,1.3-1.6,2.4-2.2
		c-5.2-1.7-10.4-1.9-13.2-0.3c-3.9,2.3-1.7,7.2,5,11.1c6.7,3.9,15.3,5.2,19.2,2.9C329.7,453.7,329.4,450.7,326.4,447.6z"/>
	<path class="st1" d="M398.3,311.7c-0.3,2.9-1.4,5.9-3.4,7.7c-0.2,0.2-0.4,0.4-0.6,0.6l-0.1,0.1c-0.2,0.2-0.4,0.3-0.6,0.5l-0.1,0.1
		c-0.2,0.2-0.4,0.3-0.6,0.4l-0.2,0.1c-0.3,0.2-0.5,0.3-0.8,0.5l-129.6,75.8c-3.9,2.3-8.2,3.6-12.7,3.6c-4.5,0-9-0.5-12.9-2.7
		L26.6,276.7c-0.3-0.2-0.6-0.4-0.9-0.6l-0.2-0.2c-0.2-0.1-0.4-0.3-0.6-0.4l-0.2-0.2l-0.6-0.5l-0.2-0.2c-0.5-0.5-0.9-1-1.3-1.5
		c-0.2-0.3-0.4-0.5-0.5-0.8l0-0.1c-0.2-0.3-0.3-0.5-0.4-0.8c-0.9-1.8-1.3-3.8-1.3-5.8v4.8c0,2.2,0.6,4.5,1.7,6.4
		c1.1,1.9,2.7,3.6,4.7,4.7l209.1,120.7c3.9,2.3,8.4,3.5,12.9,3.5c4.5,0,9-1.2,12.9-3.5L392,326.6c1.8-1,3.3-2.4,4.4-4.2
		c1.1-1.7,1.9-3.7,1.9-5.8c0,0,0-1.3,0-2.4V311.7z"/>
	<path class="st2" d="M22.2,272.4v4.9"/>
	<path class="st2" d="M24.6,275.3v5"/>
	<path class="st2" d="M27,277v4.8"/>
	<path class="st2" d="M29.4,278.5v4.9"/>
	<path class="st2" d="M31.8,279.8v4.9"/>
	<path class="st2" d="M34.2,281.1v4.9"/>
	<path class="st2" d="M36.6,282.6v4.8"/>
	<path class="st2" d="M39,283.9v4.9"/>
	<path class="st2" d="M41.4,285.1v5.1"/>
	<path class="st2" d="M43.8,286.7v5"/>
	<path class="st2" d="M46.1,287.9v4.8"/>
	<path class="st2" d="M48.5,289.4v4.9"/>
	<path class="st2" d="M50.9,291v4.8"/>
	<path class="st2" d="M53.3,292.2v4.8"/>
	<path class="st2" d="M55.7,293.4v4.9"/>
	<path class="st2" d="M58.1,295v4.8"/>
	<path class="st2" d="M60.5,296.5v4.8"/>
	<path class="st2" d="M62.9,297.7v4.8"/>
	<path class="st2" d="M65.3,299.1v4.9"/>
	<path class="st2" d="M67.8,300.3v5"/>
	<path class="st2" d="M70.1,302v4.8"/>
	<path class="st2" d="M72.5,303.2v4.9"/>
	<path class="st2" d="M74.9,304.8v4.9"/>
	<path class="st2" d="M77.3,306v4.9"/>
	<path class="st2" d="M79.7,307.4v4.8"/>
	<path class="st2" d="M82.1,308.7v4.8"/>
	<path class="st2" d="M84.5,310.1v4.9"/>
	<path class="st2" d="M86.9,311.4v4.8"/>
	<path class="st2" d="M89.3,313v4.8"/>
	<path class="st2" d="M91.7,314.2v4.8"/>
	<path class="st2" d="M94.1,315.9v4.5"/>
	<path class="st2" d="M96.5,317.4v4.5"/>
	<path class="st2" d="M98.9,318.8v4.5"/>
	<path class="st2" d="M101.3,320.1v4.6"/>
	<path class="st2" d="M103.7,321.5v4.7"/>
	<path class="st2" d="M106.1,322.9v4.8"/>
	<path class="st2" d="M108.5,324.2v4.3"/>
	<path class="st2" d="M110.9,325.5v4.5"/>
	<path class="st2" d="M113.3,326.8v4.5"/>
	<path class="st2" d="M115.7,328.3v4.5"/>
	<path class="st2" d="M118.1,329.6v4.6"/>
	<path class="st2" d="M120.5,330.9v4.6"/>
	<path class="st2" d="M122.9,332.3v4.6"/>
	<path class="st2" d="M125.3,333.8v4.5"/>
	<path class="st2" d="M127.7,335.2v4.5"/>
	<path class="st2" d="M130.1,336.5v4.6"/>
	<path class="st2" d="M132.5,337.8v4.7"/>
	<path class="st2" d="M134.9,339.2v4.4"/>
	<path class="st2" d="M137.3,340.7v4.6"/>
	<path class="st2" d="M139.6,342v4.6"/>
	<path class="st2" d="M142,343.5v4.3"/>
	<path class="st2" d="M144.4,344.9v4.5"/>
	<path class="st2" d="M146.9,346.2v4.7"/>
	<path class="st2" d="M149.3,347.8v4.3"/>
	<path class="st2" d="M151.6,348.9v4.4"/>
	<path class="st2" d="M154,350.4v4.4"/>
	<path class="st2" d="M156.4,351.6v4.6"/>
	<path class="st2" d="M158.9,353v4.6"/>
	<path class="st2" d="M161.2,354.4v4.5"/>
	<path class="st2" d="M163.6,356.1v4.3"/>
	<path class="st2" d="M166,357.5v4.4"/>
	<path class="st2" d="M168.4,358.9v4.4"/>
	<path class="st2" d="M170.8,360v4.5"/>
	<path class="st2" d="M173.2,361.7v4.4"/>
	<path class="st2" d="M175.6,362.9v4.6"/>
	<path class="st2" d="M178,364.2v4.5"/>
	<path class="st2" d="M180.4,365.8v4.4"/>
	<path class="st2" d="M182.8,366.9v4.6"/>
	<path class="st2" d="M185.2,368.3v4.6"/>
	<path class="st2" d="M187.6,369.9v4.2"/>
	<path class="st2" d="M190,371.1v4.4"/>
	<path class="st2" d="M192.4,372.9v4.2"/>
	<path class="st2" d="M194.8,374.1v4.4"/>
	<path class="st2" d="M197.2,375.5v4.3"/>
	<path class="st2" d="M199.6,376.9v4.2"/>
	<path class="st2" d="M202,378.1v4.6"/>
	<path class="st2" d="M204.4,379.9v4"/>
	<path class="st2" d="M206.8,380.8v4.5"/>
	<path class="st2" d="M209.2,382.2v4.5"/>
	<path class="st2" d="M211.6,383.9v4.4"/>
	<path class="st2" d="M214,385.3v4.3"/>
	<path class="st2" d="M216.4,386.5v4.5"/>
	<path class="st2" d="M218.8,387.8v4.3"/>
	<path class="st2" d="M221.2,389.3v4.3"/>
	<path class="st2" d="M223.6,390.4v4.6"/>
	<path class="st2" d="M226,392.3v4.1"/>
	<path class="st2" d="M228.4,393.6v4.1"/>
	<path class="st2" d="M230.7,395v4.3"/>
	<path class="st2" d="M233.1,396.4v4.3"/>
	<path class="st2" d="M235.5,397.9v4.3"/>
	<path class="st2" d="M237.9,399.3v4.1"/>
	<path class="st2" d="M240.3,400v4.3"/>
	<path class="st2" d="M242.7,400.9v3.9"/>
	<path class="st2" d="M245.1,400.8v4.3"/>
	<path class="st2" d="M247.5,401.2v4.2"/>
	<path class="st2" d="M249.9,401.2v4.2"/>
	<path class="st2" d="M252.3,401.1v4.1"/>
	<path class="st2" d="M254.7,400.5v4.2"/>
	<path class="st2" d="M257.1,399.8v4.5"/>
	<path class="st2" d="M259.5,398.8v4.4"/>
	<path class="st2" d="M261.9,397.6v4.3"/>
	<path class="st2" d="M264.3,396.2v4.3"/>
	<path class="st2" d="M266.7,393.8v5.3"/>
	<path class="st2" d="M269.1,393.5v4.4"/>
	<path class="st2" d="M271.5,392.1v4.5"/>
	<path class="st2" d="M273.9,390.8v4.4"/>
	<path class="st2" d="M276.3,389.4v4.4"/>
	<path class="st2" d="M278.7,387.9v4.4"/>
	<path class="st2" d="M281.1,386.6v4.2"/>
	<path class="st2" d="M283.5,385.1v4.3"/>
	<path class="st2" d="M285.9,383.8v4.2"/>
	<path class="st2" d="M288.3,382.4v4.4"/>
	<path class="st2" d="M290.7,381v4.2"/>
	<path class="st2" d="M293.1,379.5v4.3"/>
	<path class="st2" d="M295.5,378.3v4.1"/>
	<path class="st2" d="M297.9,376.9v4.6"/>
	<path class="st2" d="M300.3,375.3v4.3"/>
	<path class="st2" d="M302.7,373.9v4.6"/>
	<path class="st2" d="M305.1,372.3v4.5"/>
	<path class="st2" d="M307.5,371.1v4.4"/>
	<path class="st2" d="M309.9,369.8v4.5"/>
	<path class="st2" d="M312.3,368.4v4.5"/>
	<path class="st2" d="M314.7,367.1v4.3"/>
	<path class="st2" d="M317.1,365.6v4.4"/>
	<path class="st2" d="M319.5,364.2v4.5"/>
	<path class="st2" d="M321.9,362.9v4.3"/>
	<path class="st2" d="M324.2,361.4v4.6"/>
	<path class="st2" d="M326.6,360.1v4.4"/>
	<path class="st2" d="M329,358.8v4.3"/>
	<path class="st2" d="M331.4,357.3v4.4"/>
	<path class="st2" d="M333.8,355.8v4.5"/>
	<path class="st2" d="M336.2,354.5v4.7"/>
	<path class="st2" d="M338.6,353v4.5"/>
	<path class="st2" d="M341,351.6v4.5"/>
	<path class="st2" d="M343.4,350.2v4.5"/>
	<path class="st2" d="M345.8,348.9v4.5"/>
	<path class="st2" d="M348.2,347.5v4.4"/>
	<path class="st2" d="M350.6,346.1v4.5"/>
	<path class="st2" d="M353,344.6v4.6"/>
	<path class="st2" d="M355.4,343.3v4.7"/>
	<path class="st2" d="M357.8,341.8v4.5"/>
	<path class="st2" d="M360.2,340.3v4.5"/>
	<path class="st2" d="M362.6,339v4.6"/>
	<path class="st2" d="M365,337.7v4.5"/>
	<path class="st2" d="M367.4,336.2v4.7"/>
	<path class="st2" d="M369.8,334.9v4.6"/>
	<path class="st2" d="M372.2,333.4v4.6"/>
	<path class="st2" d="M374.6,332v4.6"/>
	<path class="st2" d="M377,330.8v4.3"/>
	<path class="st2" d="M379.4,329.4v4.3"/>
	<path class="st2" d="M381.8,327.5v4.8"/>
	<path class="st2" d="M384.2,326.2v5"/>
	<path class="st2" d="M386.6,324.9v4.9"/>
	<path class="st2" d="M389,323.4v5"/>
	<path class="st2" d="M391.4,322.2v4.9"/>
	<path class="st2" d="M393.8,320.7v4.6"/>
	<path class="st2" d="M396.2,317.9v4.8"/>
	<path class="st3" d="M398.3,311.7c-0.3,2.9-1.4,5.9-3.4,7.7c-0.2,0.2-0.4,0.4-0.6,0.6l-0.1,0.1c-0.2,0.2-0.4,0.3-0.6,0.5l-0.1,0.1
		c-0.2,0.2-0.4,0.3-0.6,0.4l-0.2,0.1c-0.3,0.2-0.5,0.3-0.8,0.5l-129.6,75.8c-3.9,2.3-8.2,3.6-12.7,3.6c-4.5,0-9-0.5-12.9-2.7
		L26.6,276.7c-0.3-0.2-0.6-0.4-0.9-0.6l-0.2-0.2c-0.2-0.1-0.4-0.3-0.6-0.4l-0.2-0.2l-0.6-0.5l-0.2-0.2c-0.5-0.5-0.9-1-1.3-1.5
		c-0.2-0.3-0.4-0.5-0.5-0.8l0-0.1c-0.2-0.3-0.3-0.5-0.4-0.8c-0.9-1.8-1.3-3.8-1.3-5.8v4.8c0,2.2,0.6,4.5,1.7,6.4
		c1.1,1.9,2.7,3.6,4.7,4.7l209.1,120.7c3.9,2.3,8.4,3.5,12.9,3.5s9-1.2,12.9-3.5L392,326.6c1.8-1,3.3-2.4,4.4-4.2
		c1.1-1.7,1.9-3.7,1.9-5.8c0,0,0-1.3,0-2.4V311.7z"/>
	<g>
		<path class="st4" d="M262.4,398.1l130-76c2-1.1,3.6-2.8,4.7-4.7c1.1-2,1.7-4.2,1.7-6.4s-0.4-4.5-1.5-6.8c-1.2-2.4-2.9-4.3-4.9-5.4
			L181.6,175c-3.9-2.3-7.3-3.3-11.9-3.3c-6.4,0-10.4,3.2-14.3,5.4L26.2,254.8c-1.9,1.1-3.6,2.8-4.7,4.7c-1.1,2-1.7,4.2-1.7,6.4
			c0,2.3,0.6,4.5,1.7,6.4c1.1,2,2.7,3.6,4.7,4.7l210.1,121.9c3.9,2.3,8.5,3.3,13.1,3.3C253.9,402.2,258.4,400.4,262.4,398.1z"/>
		<path class="st3" d="M392.1,321.7L392.1,321.7c1.9-1.1,3.4-2.6,4.5-4.5s1.7-4,1.7-6.2c0-2.2-0.4-4.4-1.5-6.5
			c-1.1-2.3-2.8-4.1-4.7-5.2l0,0L181.4,175.5c0,0,0,0,0,0c-3.8-2.2-7.2-3.2-11.6-3.2c-5.3,0-8.9,2.2-12.2,4.2
			c-0.6,0.4-1.2,0.8-1.8,1.1c0,0,0,0,0,0L26.5,255.2l0,0h0c-1.9,1.1-3.4,2.6-4.5,4.5c-1.1,1.9-1.7,4-1.7,6.2c0,2.2,0.6,4.3,1.7,6.2
			s2.6,3.4,4.5,4.5h0l210.1,121.9l0,0c3.8,2.2,8.4,3.2,12.8,3.2c4.4,0,8.8-1.8,12.7-4.1L392.1,321.7z M392.1,321.7l-130,76
			L392.1,321.7z"/>
	</g>
	<g class="st5">
		<path class="st6" d="M158.9,176.3l-69.3,41.6l150.8,88c3.9,2.3,8.3,3.5,12.8,3.5s8.9-1.2,12.8-3.5l68.2-40.1l-153.7-90.2
			c-3.4-2-6.8-2.8-10.2-2.8C165.4,172.7,162.3,174.2,158.9,176.3z"/>
	</g>
	<path class="st7" d="M1.7,262.3l252.7,146.5"/>
	<path class="st7" d="M0.8,270.7l176.4-106"/>
	<path class="st7" d="M416,313.3L163.7,165.1"/>
	<path class="st7" d="M243.3,408.6l172.6-100.8"/>
	<g>
		<g>
			<path class="st11" d="M59.3,239.4l35.4-20.9c1.8-1,3.8-1.6,5.9-1.6c2.1,0,4.1,0.6,5.9,1.6l132.9,77.8c0.9,0.5,1.6,1.3,2.2,2.2
				c0.5,0.9,0.8,1.9,0.8,3c0,1-0.3,2.1-0.8,2.9c-0.5,0.9-1.3,1.6-2.2,2.2L205,326.7c-1.8,1-3.8,1.6-5.9,1.6c-2.1,0-4.1-0.5-5.9-1.6
				l-134-77.1c-0.9-0.5-1.6-1.3-2.2-2.2c-0.5-0.9-0.8-1.9-0.8-3c0-1,0.3-2.1,0.8-3C57.7,240.6,58.4,239.9,59.3,239.4z"/>
			<path class="st2" d="M59.3,239.4l35.4-20.9c1.8-1,3.8-1.6,5.9-1.6c2.1,0,4.1,0.6,5.9,1.6l132.9,77.8c0.9,0.5,1.6,1.3,2.2,2.2
				c0.5,0.9,0.8,1.9,0.8,3c0,1-0.3,2.1-0.8,2.9c-0.5,0.9-1.3,1.6-2.2,2.2L205,326.7c-1.8,1-3.8,1.6-5.9,1.6c-2.1,0-4.1-0.5-5.9-1.6
				l-134-77.1c-0.9-0.5-1.6-1.3-2.2-2.2c-0.5-0.9-0.8-1.9-0.8-3c0-1,0.3-2.1,0.8-3C57.7,240.6,58.4,239.9,59.3,239.4z"/>
		</g>
		<path class="st1" d="M114.8,251.8c-7.2,4.2-18.8,4.2-25.9,0.1c-7.1-4.1-7.1-10.8,0.1-15c7.2-4.2,18.8-4.2,26-0.1
			C122,240.9,122,247.6,114.8,251.8z"/>
		<path class="st12" d="M111.5,245.4L97,246.2c-0.3,0-0.7,0-1-0.1c-0.3-0.1-0.6-0.2-0.9-0.3c-0.2-0.1-0.5-0.3-0.6-0.5
			c-0.1-0.2-0.2-0.4-0.3-0.6l-0.4-3.8"/>
		<path class="st13" d="M136.1,251.4l-4.8,2.8l20,11.5l4.8-2.8L136.1,251.4z"/>
		<path class="st14" d="M211.5,308.5L125,258l0.7-0.4l86.5,50.5L211.5,308.5z"/>
		<path class="st14" d="M205.3,312.2l-86.5-50.5l0.7-0.4l86.6,50.5L205.3,312.2z"/>
	</g>
	<g>
		<path class="st15" d="M258.7,251.8l38.4-22.1c1.1-0.6,2.4-1,3.7-1c1.3,0,2.6,0.3,3.7,1L390,279c0.5,0.3,0.9,0.7,1.1,1.1
			c0.3,0.5,0.4,1,0.4,1.5c0,0.5-0.1,1.1-0.4,1.5c-0.3,0.5-0.7,0.9-1.1,1.1l-38.5,22.4c-1.1,0.6-2.4,1-3.7,1c-1.3,0-2.6-0.3-3.7-1
			l-85.4-49.5c-0.5-0.3-0.9-0.7-1.1-1.1c-0.3-0.5-0.4-1-0.4-1.5c0-0.5,0.1-1.1,0.4-1.5C257.9,252.5,258.3,252.1,258.7,251.8z"/>
		<path class="st15" d="M384.5,287.5l5.5-3.2c0.5-0.3,0.9-0.7,1.1-1.1c0.3-0.5,0.4-1,0.4-1.5c0-0.5-0.1-1.1-0.4-1.5
			c-0.3-0.5-0.7-0.9-1.1-1.1l-85.5-49.3c-1.1-0.6-2.4-1-3.7-1c-1.3,0-2.6,0.3-3.7,1l-6.8,3.9L384.5,287.5z"/>
		<path class="st16" d="M306,236.9c-0.5,0.2-1,0.4-1.5,0.4s-1-0.1-1.5-0.4c-0.8-0.5-0.8-1.2,0-1.7c0.5-0.2,1-0.4,1.5-0.4
			c0.5,0,1,0.1,1.5,0.4C306.8,235.6,306.8,236.4,306,236.9z"/>
		<path class="st17" d="M310.9,239.6c-0.5,0.2-1,0.4-1.5,0.4s-1-0.1-1.5-0.4c-0.8-0.5-0.8-1.2,0-1.7c0.5-0.2,1-0.4,1.5-0.4
			c0.5,0,1,0.1,1.5,0.4C311.7,238.3,311.7,239.1,310.9,239.6z"/>
		<path class="st18" d="M315.7,242.2c-0.5,0.2-1,0.4-1.5,0.4c-0.5,0-1-0.1-1.5-0.4c-0.8-0.5-0.8-1.3,0-1.7c0.5-0.2,1-0.4,1.5-0.4
			c0.5,0,1,0.1,1.5,0.4C316.5,241,316.5,241.7,315.7,242.2z"/>
		<path class="st13" d="M292,245.8c-0.4,0.2-0.7,0.4-1.1,0.4c-0.4,0.1-0.8,0.1-1.1,0c-0.3,0-0.7-0.2-1-0.3c-0.2-0.1-0.5-0.3-0.6-0.6
			c0-0.1-0.1-0.2-0.1-0.3s0-0.2,0.1-0.3c0.2-0.3,0.5-0.5,0.8-0.7c0.4-0.2,0.8-0.4,1.2-0.4c0.4-0.1,0.8-0.1,1.1,0
			c0.3,0.1,0.7,0.2,1,0.3c0.2,0.1,0.4,0.3,0.6,0.6c0,0.1,0.1,0.2,0,0.3c0,0.1,0,0.2-0.1,0.3C292.6,245.4,292.3,245.6,292,245.8z
			 M291.4,245.4c0.2-0.1,0.4-0.2,0.5-0.4c0-0.1,0.1-0.1,0.1-0.2c0-0.1,0-0.1,0-0.2c-0.1-0.1-0.2-0.3-0.3-0.3
			c-0.2-0.1-0.4-0.2-0.6-0.2c-0.2,0-0.4,0-0.7,0c-0.3,0.1-0.5,0.2-0.7,0.3c-0.2,0.1-0.4,0.2-0.5,0.4c0,0.1-0.1,0.1-0.1,0.2
			c0,0.1,0,0.1,0,0.2c0.1,0.1,0.2,0.3,0.3,0.3c0.2,0.1,0.4,0.2,0.6,0.2c0.2,0,0.4,0,0.7-0.1C290.9,245.6,291.1,245.5,291.4,245.4
			L291.4,245.4z"/>
		<path class="st13" d="M290.8,247l3.4-2l0.7,0.4l-1.3,0.7c0.1,0,0.2,0,0.3,0c0.1,0,0.3,0,0.4,0c0.1,0,0.3,0.1,0.4,0.2
			c0.1,0.1,0.3,0.2,0.3,0.4c0,0.1,0,0.2,0,0.2c0,0.1,0,0.2-0.1,0.2c-0.2,0.2-0.4,0.4-0.6,0.5c-0.3,0.2-0.5,0.3-0.8,0.3
			c-0.3,0.1-0.5,0.1-0.8,0.1c-0.2,0-0.4-0.1-0.6-0.2c-0.1-0.1-0.2-0.1-0.3-0.2c0-0.1-0.1-0.1-0.1-0.2c0-0.1,0-0.1,0.1-0.2h0
			l-0.4,0.2L290.8,247z M292.8,246.7c-0.1,0.1-0.2,0.2-0.3,0.3c0,0-0.1,0.1-0.1,0.1c0,0,0,0.1,0,0.1c0,0,0,0.1,0.1,0.1
			c0,0,0.1,0.1,0.1,0.1c0.1,0.1,0.2,0.1,0.4,0.1c0.1,0,0.3,0,0.4-0.1c0.2,0,0.3-0.1,0.5-0.2c0.1-0.1,0.2-0.2,0.3-0.3
			c0,0,0.1-0.1,0.1-0.1c0,0,0-0.1,0-0.1c0,0,0-0.1-0.1-0.1c0,0-0.1-0.1-0.1-0.1c-0.1-0.1-0.2-0.1-0.4-0.1c-0.1,0-0.3,0-0.4,0
			C293.1,246.5,292.9,246.6,292.8,246.7L292.8,246.7z"/>
		<path class="st13" d="M296.1,247.2l0.6,0.4l-2.6,1.5c-0.2,0.1-0.4,0.2-0.6,0.2c-0.2,0-0.4,0-0.6,0c-0.2,0-0.4-0.1-0.6-0.2l-0.1,0
			l-0.1,0l0.5-0.3l0,0h0c0.1,0.1,0.2,0.1,0.3,0.1c0.1,0,0.2,0,0.3-0.1L296.1,247.2z M296.7,247.2
			C296.7,247.2,296.7,247.1,296.7,247.2c-0.1-0.1-0.1-0.2-0.1-0.2c0,0,0-0.1,0-0.1c0,0,0.1-0.1,0.1-0.1c0.1-0.1,0.2-0.1,0.3-0.1
			c0.1,0,0.2,0,0.3,0.1c0,0,0.1,0,0.1,0.1c0,0,0,0.1,0,0.1c0,0,0,0.1,0,0.1c0,0-0.1,0.1-0.1,0.1c-0.1,0.1-0.2,0.1-0.3,0.1
			C297,247.3,296.8,247.2,296.7,247.2L296.7,247.2z"/>
		<path class="st13" d="M295.8,250c-0.2-0.1-0.4-0.3-0.5-0.5c0-0.1,0-0.2,0-0.2c0-0.1,0-0.2,0.1-0.2c0.1-0.2,0.3-0.4,0.5-0.5
			c0.2-0.1,0.5-0.3,0.8-0.3c0.3-0.1,0.6-0.1,0.8,0c0.3,0,0.5,0.1,0.7,0.2c0.1,0.1,0.2,0.2,0.3,0.3c0.1,0.1,0.1,0.2,0.1,0.3
			c0,0.1-0.1,0.3-0.2,0.4c-0.1,0.1-0.3,0.3-0.5,0.4l-0.2,0.1l-1.9-1.1l0.4-0.2l1.3,0.8c0.1,0,0.2-0.1,0.2-0.2c0,0,0-0.1,0-0.1
			c0,0,0-0.1,0-0.1c0-0.1-0.1-0.1-0.2-0.2c-0.1-0.1-0.2-0.1-0.3-0.1c-0.1,0-0.2,0-0.4,0c-0.1,0-0.2,0.1-0.3,0.1l-0.4,0.2
			c-0.1,0.1-0.2,0.1-0.2,0.2c0,0,0,0.1,0,0.1c0,0,0,0.1,0,0.1c0,0.1,0.1,0.2,0.2,0.2c0.1,0,0.1,0.1,0.2,0.1c0.1,0,0.2,0,0.2,0
			c0.1,0,0.2,0,0.2,0l0.5,0.4c-0.2,0.1-0.4,0.1-0.6,0.1C296.5,250.3,296.1,250.2,295.8,250L295.8,250z"/>
		<path class="st13" d="M298.2,251.4c-0.2-0.1-0.3-0.3-0.4-0.5c0-0.1,0-0.2,0-0.2s0-0.2,0.1-0.2c0.1-0.2,0.3-0.4,0.5-0.5
			c0.2-0.1,0.5-0.2,0.8-0.3c0.3-0.1,0.5-0.1,0.8,0c0.3,0,0.5,0.1,0.7,0.3c0.2,0.1,0.3,0.2,0.4,0.4c0,0.1,0,0.1,0,0.2s0,0.1,0,0.2
			c-0.1,0.2-0.2,0.3-0.3,0.4l-0.6-0.3c0,0,0.1-0.1,0.1-0.1c0,0,0-0.1,0.1-0.1c0,0,0-0.1,0-0.1c0,0-0.1-0.1-0.1-0.1
			c-0.1-0.1-0.2-0.1-0.3-0.1c-0.1,0-0.3,0-0.4,0c-0.2,0-0.3,0.1-0.5,0.2c-0.1,0.1-0.2,0.2-0.3,0.3c0,0-0.1,0.1-0.1,0.1
			c0,0,0,0.1,0,0.1c0,0,0,0.1,0.1,0.1c0,0,0.1,0.1,0.1,0.1c0.1,0,0.2,0.1,0.2,0.1c0.1,0,0.2,0,0.3,0c0.1,0,0.2,0,0.3-0.1l0.6,0.3
			c-0.2,0.1-0.4,0.2-0.6,0.2c-0.2,0-0.4,0-0.7,0C298.6,251.6,298.4,251.5,298.2,251.4z"/>
		<path class="st13" d="M303.2,251.4l-0.5,0.3l-1.3-0.8l0.5-0.3L303.2,251.4z M302.8,250.5l0.6,0.4l-2.2,1.3c0,0-0.1,0.1-0.1,0.1
			c0,0,0,0,0,0c0,0,0,0,0,0c0,0,0.1,0.1,0.1,0.1l0.1,0l0.1,0l-0.4,0.4l-0.2-0.1c-0.1,0-0.1-0.1-0.2-0.1c-0.1-0.1-0.2-0.2-0.3-0.3
			c0,0,0-0.1-0.1-0.1s0-0.1,0-0.1c0.1-0.1,0.2-0.2,0.3-0.3L302.8,250.5z"/>
		<path class="st13" d="M301.5,253.3C301.5,253.3,301.4,253.3,301.5,253.3c-0.1-0.1-0.1-0.2-0.1-0.2c0,0,0-0.1,0.1-0.1
			c0,0,0.1-0.1,0.1-0.1c0.1-0.1,0.2-0.1,0.4-0.1c0.1,0,0.2,0,0.3,0.1c0,0,0.1,0,0.1,0.1c0,0,0,0.1,0,0.1c0,0,0,0.1-0.1,0.1
			c0,0-0.1,0.1-0.1,0.1c-0.1,0-0.2,0.1-0.2,0.1c-0.1,0-0.2,0-0.3,0C301.6,253.4,301.6,253.3,301.5,253.3z"/>
		<path class="st13" d="M306.3,253.6c0,0,0.1-0.1,0.1-0.2c0-0.1,0-0.1,0-0.2c0-0.1,0-0.1-0.1-0.2c-0.1-0.1-0.1-0.1-0.2-0.1
			c-0.1-0.1-0.3-0.1-0.5-0.2c-0.2,0-0.4,0-0.6,0.1c-0.2,0.1-0.4,0.2-0.6,0.3c-0.2,0.1-0.3,0.2-0.5,0.4c0,0-0.1,0.1-0.1,0.2
			c0,0.1,0,0.1,0,0.2c0,0.1,0.1,0.1,0.1,0.2c0,0.1,0.1,0.1,0.2,0.1c0.1,0.1,0.3,0.1,0.4,0.2c0.3,0.1,0.6,0,0.9-0.2l0.1,0.1l-0.7-0.4
			l0.5-0.3l1.1,0.7l-0.4,0.2c-0.5,0.3-1.1,0.4-1.7,0.4c-0.3,0-0.5-0.1-0.8-0.3c-0.2-0.1-0.4-0.3-0.5-0.5c0-0.1,0-0.2,0-0.3
			c0-0.1,0.1-0.2,0.1-0.3c0.2-0.3,0.4-0.5,0.7-0.6c0.5-0.3,1-0.4,1.6-0.5c0.2,0,0.5,0,0.7,0.1c0.2,0,0.4,0.1,0.6,0.2
			c0.1,0.1,0.3,0.2,0.4,0.3c0.1,0.1,0.1,0.2,0.1,0.3c0,0.1,0,0.2-0.1,0.4c-0.1,0.1-0.2,0.2-0.3,0.3L306.3,253.6z"/>
		<path class="st13" d="M305.3,255.5l3.1-1.8l1.8,1.1l-0.5,0.3l-1.2-0.7l-0.7,0.4l1.1,0.7l-0.5,0.3l-1.1-0.7l-0.7,0.5l1.2,0.7
			l-0.5,0.3L305.3,255.5z"/>
		<path class="st13" d="M310,255.2l0.5-0.3l2.1,1.3l-0.5,0.3l-0.8-0.5l-2.5,1.5l-0.5-0.3l2.5-1.5L310,255.2z"/>
		<path class="st13" d="M312.4,257.8c0.3-0.2,0.7-0.4,1.1-0.5c0.4-0.1,0.8-0.2,1.2-0.3l0.5,0.3c-0.2,0-0.3,0.1-0.5,0.1
			c-0.2,0.1-0.4,0.1-0.6,0.2c-0.2,0.1-0.4,0.2-0.6,0.2c-0.2,0.1-0.4,0.2-0.5,0.3c-0.2,0.1-0.4,0.3-0.6,0.5c-0.2,0.2-0.3,0.3-0.5,0.5
			c-0.1,0.1-0.2,0.3-0.3,0.4l-0.5-0.3c0.1-0.3,0.3-0.5,0.5-0.7C311.8,258.3,312.1,258,312.4,257.8z"/>
		<path class="st13" d="M315.2,259.5c-0.3,0.2-0.7,0.4-1.1,0.5c-0.4,0.1-0.8,0.2-1.2,0.3l-0.5-0.3c0.2,0,0.4-0.1,0.5-0.1
			c0.2-0.1,0.4-0.1,0.6-0.2c0.2-0.1,0.4-0.2,0.6-0.2c0.2-0.1,0.4-0.2,0.5-0.3c0.2-0.1,0.4-0.3,0.6-0.5c0.2-0.1,0.3-0.3,0.5-0.5
			c0.1-0.1,0.2-0.3,0.3-0.4l0.5,0.3c-0.1,0.3-0.3,0.5-0.5,0.7C315.8,259.1,315.5,259.4,315.2,259.5z"/>
		<path class="st13" d="M285,249.7c-0.7,0.4-1.5,0.6-2.3,0.5c-0.3-0.1-0.7-0.2-1-0.3c-0.2-0.1-0.4-0.3-0.6-0.6
			c0-0.1-0.1-0.2-0.1-0.3c0-0.1,0-0.2,0.1-0.3c0.2-0.3,0.4-0.5,0.7-0.6c0.7-0.4,1.5-0.6,2.2-0.5c0.3,0,0.7,0.2,1,0.3
			c0.2,0.1,0.4,0.3,0.6,0.6c0,0.1,0.1,0.2,0.1,0.3s0,0.2-0.1,0.3C285.6,249.3,285.3,249.6,285,249.7z M284.3,249.3
			c0.2-0.1,0.4-0.2,0.5-0.4c0-0.1,0.1-0.1,0.1-0.2c0-0.1,0-0.1,0-0.2c-0.1-0.1-0.2-0.3-0.3-0.3c-0.2-0.1-0.4-0.2-0.6-0.2
			c-0.2,0-0.4,0-0.7,0c-0.2,0.1-0.5,0.2-0.7,0.3c-0.2,0.1-0.4,0.2-0.5,0.4c0,0.1-0.1,0.1-0.1,0.2c0,0.1,0,0.1,0,0.2
			c0.1,0.1,0.2,0.3,0.3,0.3c0.2,0.1,0.4,0.2,0.6,0.2c0.2,0,0.4,0,0.6,0C283.9,249.5,284.1,249.4,284.3,249.3z"/>
		<path class="st13" d="M283.9,251l3.3-1.9l0.7,0.4l-1.3,0.7c0.1,0,0.2,0,0.3,0c0.1,0,0.3,0,0.4,0c0.1,0,0.3,0.1,0.4,0.2
			c0.2,0.1,0.3,0.2,0.4,0.4c0,0.1,0,0.2,0,0.2c0,0.1,0,0.2-0.1,0.2c-0.2,0.2-0.4,0.4-0.6,0.5c-0.3,0.2-0.5,0.3-0.8,0.3
			c-0.3,0.1-0.5,0.1-0.8,0c-0.2,0-0.5-0.1-0.7-0.2c-0.1-0.1-0.2-0.1-0.3-0.2c0-0.1-0.1-0.1-0.1-0.2c0-0.1,0-0.1,0.1-0.2h0l-0.4,0.2
			L283.9,251z M285.8,250.6c-0.1,0.1-0.2,0.2-0.3,0.3c0,0-0.1,0.1-0.1,0.1c0,0,0,0.1,0,0.1c0,0,0,0.1,0.1,0.1c0,0,0.1,0.1,0.1,0.1
			c0.1,0.1,0.2,0.1,0.4,0.1c0.2,0,0.3,0,0.5,0c0.2,0,0.3-0.1,0.5-0.2c0.1-0.1,0.2-0.1,0.3-0.3c0,0,0.1-0.1,0.1-0.1c0,0,0-0.1,0-0.1
			c0,0,0-0.1-0.1-0.1c0,0-0.1-0.1-0.1-0.1c-0.1-0.1-0.2-0.1-0.4-0.1c-0.1,0-0.3,0-0.4,0C286.1,250.5,285.9,250.5,285.8,250.6z"/>
		<path class="st13" d="M289.2,251.2l0.7,0.4l-2.6,1.5c-0.2,0.1-0.4,0.2-0.6,0.2c-0.2,0-0.4,0-0.6,0c-0.2-0.1-0.4-0.1-0.6-0.2
			l-0.1,0l-0.1,0l0.5-0.3l0,0h0c0.1,0.1,0.2,0.1,0.3,0.1c0.1,0,0.2,0,0.3-0.1L289.2,251.2z M289.9,251.2c0,0-0.1,0-0.1-0.1
			s0-0.1,0-0.1c0,0,0-0.1,0-0.1c0,0,0.1-0.1,0.1-0.1c0.1-0.1,0.2-0.1,0.4-0.1c0.1,0,0.3,0,0.4,0.1c0,0,0.1,0.1,0.1,0.1
			c0,0,0,0.1,0.1,0.1c0,0,0,0.1,0,0.1c0,0-0.1,0.1-0.1,0.1c-0.1,0.1-0.2,0.1-0.4,0.1C290.1,251.3,290,251.3,289.9,251.2L289.9,251.2
			z"/>
		<path class="st13" d="M289.1,254.1c-0.2-0.1-0.4-0.3-0.5-0.5c0-0.1-0.1-0.2-0.1-0.3s0-0.2,0.1-0.3c0.1-0.2,0.3-0.4,0.5-0.5
			c0.3-0.1,0.5-0.3,0.8-0.3c0.3,0,0.6,0,0.9,0c0.3,0,0.6,0.1,0.8,0.3c0.1,0.1,0.3,0.2,0.4,0.3c0.1,0.1,0.1,0.2,0.1,0.4
			c0,0.1-0.1,0.3-0.2,0.4c-0.1,0.2-0.3,0.3-0.5,0.4l-0.2,0.1l-2.1-1.2l0.4-0.2l1.5,0.9c0.1,0,0.2-0.1,0.2-0.2c0,0,0-0.1,0-0.1
			s0-0.1,0-0.1c0-0.1-0.1-0.1-0.2-0.2c-0.1-0.1-0.2-0.1-0.4-0.1c-0.1,0-0.3,0-0.4,0c-0.1,0-0.2,0.1-0.3,0.1l-0.4,0.2
			c-0.1,0.1-0.2,0.1-0.3,0.2c0,0,0,0.1,0,0.1c0,0,0,0.1,0,0.1c0.1,0.1,0.1,0.2,0.2,0.2c0.1,0,0.2,0.1,0.2,0.1c0.1,0,0.2,0,0.3,0
			c0.1,0,0.2,0,0.3,0l0.6,0.4c-0.2,0.1-0.4,0.1-0.6,0.1c-0.2,0-0.4,0-0.7-0.1C289.5,254.3,289.3,254.2,289.1,254.1z"/>
		<path class="st13" d="M291.8,255.7c-0.2-0.1-0.4-0.3-0.5-0.5c0-0.1-0.1-0.2,0-0.3c0-0.1,0-0.2,0.1-0.3c0.1-0.2,0.3-0.4,0.5-0.5
			c0.3-0.1,0.5-0.3,0.8-0.3c0.3-0.1,0.6-0.1,0.9,0c0.3,0,0.6,0.1,0.8,0.3c0.2,0.1,0.3,0.2,0.5,0.4c0,0.1,0.1,0.1,0.1,0.2
			c0,0.1,0,0.2,0,0.2c-0.1,0.2-0.2,0.3-0.4,0.4l-0.7-0.4c0,0,0.1-0.1,0.1-0.1c0,0,0-0.1,0-0.2c0-0.1-0.1-0.2-0.2-0.2
			c-0.1-0.1-0.2-0.1-0.4-0.1c-0.2,0-0.3,0-0.5,0c-0.2,0-0.3,0.1-0.5,0.2c-0.1,0.1-0.3,0.2-0.3,0.3c0,0-0.1,0.1-0.1,0.1
			c0,0,0,0.1,0,0.1c0,0,0,0.1,0.1,0.1c0,0,0.1,0.1,0.1,0.1c0.1,0.1,0.2,0.1,0.3,0.1c0.1,0,0.2,0,0.3,0c0.1,0,0.2,0,0.3-0.1l0.7,0.4
			c-0.2,0.1-0.4,0.2-0.7,0.2c-0.2,0-0.5,0-0.7,0C292.2,255.9,292,255.8,291.8,255.7z"/>
		<path class="st13" d="M297.4,255.9l-0.5,0.3l-1.5-0.9l0.5-0.3L297.4,255.9z M296.8,254.9l0.7,0.4l-2.4,1.4c-0.1,0-0.1,0.1-0.1,0.1
			c0,0,0,0,0,0c0,0,0,0,0,0c0,0,0.1,0.1,0.1,0.1l0.1,0.1l0.1,0l-0.4,0.4l-0.2-0.1c-0.1,0-0.2-0.1-0.3-0.1c-0.1-0.1-0.3-0.2-0.4-0.3
			c0,0-0.1-0.1-0.1-0.1c0-0.1,0-0.1,0-0.2c0.1-0.1,0.2-0.2,0.3-0.3L296.8,254.9z"/>
		<path class="st13" d="M295.6,257.9c0,0-0.1-0.1-0.1-0.1c0,0,0-0.1,0-0.1c0,0,0-0.1,0-0.1c0,0,0.1-0.1,0.1-0.1
			c0.1-0.1,0.3-0.1,0.4-0.1c0.1,0,0.3,0,0.4,0.1c0,0,0.1,0.1,0.1,0.1c0,0,0,0.1,0.1,0.1c0,0.1,0,0.1,0,0.1c0,0-0.1,0.1-0.1,0.1
			c-0.1,0-0.2,0.1-0.3,0.1c-0.1,0-0.2,0-0.3,0C295.8,258,295.7,258,295.6,257.9z"/>
		<path class="st13" d="M296.8,258.6l3.2-1.8l1.3,0.7c0.2,0.1,0.4,0.3,0.5,0.5c0,0.1,0.1,0.1,0.1,0.2s0,0.2-0.1,0.2
			c-0.1,0.2-0.2,0.3-0.4,0.4c-0.2,0.1-0.5,0.2-0.7,0.2c-0.5,0.1-1.1,0-1.6-0.3l-0.8-0.5l0.5-0.3l0.7,0.4c0.1,0.1,0.3,0.1,0.4,0.2
			c0.1,0,0.3,0,0.4,0c0.1,0,0.2-0.1,0.3-0.1c0.1,0,0.2-0.1,0.2-0.2c0,0,0-0.1,0-0.1c0,0,0-0.1,0-0.1c-0.1-0.1-0.2-0.2-0.3-0.2
			l-0.5-0.3l-2.7,1.5L296.8,258.6z"/>
		<path class="st13" d="M304.4,261.1c-0.3,0.2-0.7,0.3-1.1,0.4c-0.4,0.1-0.8,0.1-1.1,0c-0.3-0.1-0.7-0.2-1-0.4
			c-0.2-0.1-0.5-0.3-0.6-0.6c-0.1-0.1-0.1-0.2-0.1-0.3s0-0.2,0.1-0.3c0.2-0.3,0.4-0.5,0.7-0.6c0.3-0.2,0.7-0.3,1.1-0.4
			c0.4-0.1,0.8-0.1,1.1,0c0.4,0.1,0.7,0.2,1,0.4c0.3,0.1,0.5,0.3,0.6,0.6c0.1,0.1,0.1,0.2,0.1,0.3c0,0.1,0,0.2-0.1,0.3
			C304.9,260.8,304.7,261,304.4,261.1z M303.7,260.7c0.2-0.1,0.3-0.2,0.5-0.4c0-0.1,0.1-0.1,0.1-0.2c0-0.1,0-0.1,0-0.2
			c-0.1-0.1-0.2-0.3-0.3-0.3c-0.2-0.1-0.4-0.2-0.6-0.2c-0.2,0-0.4,0-0.6,0c-0.2,0.1-0.5,0.1-0.7,0.3c-0.2,0.1-0.3,0.2-0.5,0.4
			c0,0.1-0.1,0.1-0.1,0.2c0,0.1,0,0.1,0,0.2c0.1,0.1,0.2,0.3,0.3,0.3c0.2,0.1,0.4,0.2,0.6,0.2c0.2,0,0.4,0,0.6,0
			C303.2,260.9,303.4,260.8,303.7,260.7z"/>
		<path class="st13" d="M307.4,262.1c0.1-0.1,0.2-0.2,0.1-0.3c-0.1-0.1-0.2-0.2-0.3-0.3c-0.1-0.1-0.2-0.1-0.3-0.1
			c-0.1,0-0.2,0-0.3,0c-0.1,0-0.2,0-0.2,0.1c0,0,0,0-0.1,0c0,0,0,0,0,0.1c0,0,0,0.1,0,0.1c0,0.1,0.1,0.1,0.1,0.1
			c0,0.1,0.1,0.1,0.1,0.2l0.2,0.2c0.1,0.1,0.2,0.2,0.3,0.3c0.1,0.1,0.1,0.2,0.1,0.3c0,0.1,0,0.2-0.1,0.3c-0.1,0.1-0.2,0.2-0.3,0.3
			c-0.2,0.1-0.4,0.2-0.7,0.2c-0.3,0-0.5,0-0.8-0.1c-0.3-0.1-0.6-0.2-0.8-0.3c-0.2-0.1-0.4-0.3-0.6-0.5c-0.1-0.1-0.1-0.1-0.1-0.2
			c0-0.1,0-0.2,0-0.2c0.1-0.2,0.2-0.4,0.4-0.5l0.7,0.4c-0.1,0-0.1,0.1-0.2,0.2c0,0,0,0.1,0,0.1c0,0,0,0.1,0.1,0.1
			c0.1,0.1,0.2,0.2,0.3,0.2c0.1,0.1,0.2,0.1,0.4,0.2c0.1,0,0.2,0,0.4,0c0.1,0,0.2,0,0.3-0.1c0,0,0.1,0,0.1-0.1c0,0,0-0.1,0-0.1
			c0-0.1,0-0.1-0.1-0.2c-0.1-0.1-0.1-0.2-0.2-0.2l-0.3-0.3c-0.2-0.1-0.3-0.3-0.4-0.6c0-0.2,0.1-0.3,0.3-0.5c0.2-0.1,0.4-0.2,0.7-0.2
			c0.3,0,0.5,0,0.8,0.1c0.3,0.1,0.5,0.2,0.8,0.3c0.2,0.1,0.4,0.3,0.5,0.5c0.1,0.1,0.1,0.1,0.1,0.2c0,0.1,0,0.2,0,0.2
			c-0.1,0.2-0.2,0.3-0.4,0.4L307.4,262.1z"/>
		<path class="st13" d="M308.9,262.5l0.6-0.3l2.8,1.6l-0.6,0.3l-1.1-0.6l-2.7,1.6l-0.7-0.4l2.7-1.6L308.9,262.5z"/>
		<path class="st13" d="M312,265.6c0.7-0.4,1.5-0.7,2.3-0.8l0.5,0.3c-0.2,0-0.4,0.1-0.5,0.1c-0.2,0.1-0.4,0.1-0.6,0.2
			c-0.2,0.1-0.4,0.2-0.6,0.2c-0.2,0.1-0.4,0.2-0.5,0.3c-0.2,0.1-0.4,0.3-0.6,0.5c-0.2,0.1-0.3,0.3-0.5,0.5c-0.1,0.1-0.2,0.3-0.3,0.4
			l-0.5-0.3c0.1-0.3,0.3-0.5,0.5-0.7C311.4,266,311.7,265.8,312,265.6z"/>
		<path class="st13" d="M314.9,267.3c-0.3,0.2-0.7,0.4-1.1,0.5c-0.4,0.1-0.8,0.2-1.2,0.3l-0.5-0.3c0.2,0,0.4-0.1,0.5-0.1
			c0.2,0,0.4-0.1,0.6-0.2s0.4-0.2,0.6-0.2c0.2-0.1,0.4-0.2,0.5-0.3c0.2-0.1,0.4-0.3,0.6-0.5c0.2-0.1,0.3-0.3,0.5-0.5
			c0.1-0.1,0.2-0.3,0.3-0.4l0.5,0.3c-0.1,0.3-0.3,0.5-0.5,0.7C315.4,266.9,315.2,267.1,314.9,267.3z"/>
		<path class="st13" d="M278.2,254.5c-0.4,0.2-0.8,0.4-1.3,0.4c-0.4,0.1-0.8,0.1-1.2,0c-0.4-0.1-0.7-0.2-1-0.4
			c-0.2-0.1-0.5-0.3-0.6-0.6c0-0.1-0.1-0.2,0-0.3c0-0.1,0.1-0.2,0.1-0.3c0.2-0.3,0.5-0.5,0.8-0.7c0.4-0.2,0.8-0.3,1.2-0.4
			c0.4-0.1,0.8-0.1,1.2,0c0.4,0.1,0.7,0.2,1,0.3c0.3,0.1,0.5,0.3,0.6,0.6c0,0.1,0.1,0.2,0,0.3c0,0.1-0.1,0.2-0.1,0.3
			C278.8,254.1,278.6,254.3,278.2,254.5z M277.5,254.1c0.2-0.1,0.4-0.2,0.5-0.4c0.1-0.1,0.1-0.1,0.1-0.2c0-0.1,0-0.1,0-0.2
			c-0.1-0.1-0.2-0.3-0.3-0.3c-0.2-0.1-0.4-0.2-0.6-0.2c-0.2,0-0.5,0-0.7,0c-0.3,0.1-0.5,0.2-0.8,0.3c-0.2,0.1-0.4,0.2-0.6,0.4
			c0,0.1-0.1,0.1-0.1,0.2c0,0.1,0,0.1,0,0.2c0,0.1,0.1,0.1,0.1,0.2c0.1,0.1,0.1,0.1,0.2,0.1c0.2,0.1,0.4,0.2,0.6,0.2
			c0.2,0,0.5,0,0.7,0C277,254.3,277.3,254.2,277.5,254.1z"/>
		<path class="st13" d="M276.9,255.8l3.7-2l0.7,0.4l-1.4,0.7c0.1,0,0.2,0,0.4,0c0.1,0,0.3,0,0.4,0c0.2,0,0.3,0.1,0.4,0.2
			c0.2,0.1,0.3,0.2,0.4,0.4c0,0.1,0,0.2,0,0.3c0,0.1-0.1,0.2-0.1,0.2c-0.2,0.2-0.4,0.4-0.6,0.5c-0.3,0.2-0.6,0.3-0.9,0.3
			c-0.3,0.1-0.6,0.1-0.8,0c-0.2,0-0.5-0.1-0.7-0.2c-0.1-0.1-0.2-0.1-0.3-0.2c0-0.1-0.1-0.2,0-0.2c0-0.1,0-0.1,0.1-0.2h0l-0.4,0.2
			L276.9,255.8z M279,255.4c-0.1,0.1-0.3,0.2-0.4,0.3c0,0-0.1,0.1-0.1,0.1c0,0,0,0.1,0,0.1c0,0,0,0.1,0.1,0.1c0,0,0.1,0.1,0.1,0.1
			c0.1,0.1,0.3,0.1,0.4,0.1c0.2,0,0.3,0,0.5,0c0.2,0,0.3-0.1,0.5-0.2c0.1-0.1,0.3-0.2,0.4-0.3c0,0,0.1-0.1,0.1-0.1c0,0,0-0.1,0-0.1
			c0,0,0-0.1-0.1-0.1c0,0-0.1-0.1-0.1-0.1c-0.1-0.1-0.3-0.1-0.4-0.1c-0.2,0-0.3,0-0.5,0C279.3,255.3,279.2,255.4,279,255.4z"/>
		<path class="st13" d="M282.6,256l0.7,0.4l-2.9,1.5c-0.2,0.1-0.4,0.2-0.6,0.2c-0.2,0-0.4,0-0.6,0c-0.2-0.1-0.4-0.2-0.6-0.3h-0.1
			l-0.1,0l0.6-0.3c0,0,0,0,0,0l0,0c0.1,0.1,0.2,0.1,0.3,0.1c0.1,0,0.2,0,0.3-0.1L282.6,256z M283.3,256c0,0-0.1,0-0.1-0.1
			c0,0,0-0.1,0-0.1c0,0,0-0.1,0-0.1c0,0,0.1-0.1,0.1-0.1c0.1-0.1,0.2-0.1,0.4-0.1c0.1,0,0.3,0,0.4,0.1c0,0,0.1,0,0.1,0.1
			c0,0,0,0.1,0,0.1c0,0,0,0.1,0,0.1c0,0-0.1,0.1-0.1,0.1c-0.1,0.1-0.2,0.1-0.4,0.1C283.6,256.1,283.4,256.1,283.3,256L283.3,256z"/>
		<path class="st13" d="M282.3,258.9c-0.2-0.1-0.4-0.3-0.5-0.5c0-0.1-0.1-0.2-0.1-0.3c0-0.1,0-0.2,0.1-0.3c0.2-0.2,0.4-0.4,0.6-0.5
			c0.6-0.3,1.2-0.4,1.8-0.3c0.3,0,0.6,0.1,0.8,0.3c0.1,0.1,0.3,0.2,0.4,0.3c0.1,0.1,0.1,0.2,0.1,0.4c0,0.1-0.1,0.3-0.2,0.4
			c-0.1,0.2-0.3,0.3-0.5,0.4l-0.2,0.1l-2.1-1.2l0.5-0.3l1.5,0.9c0.1,0,0.2-0.1,0.2-0.2c0,0,0-0.1,0-0.1c0,0,0-0.1,0-0.1
			c0-0.1-0.1-0.2-0.2-0.2c-0.1-0.1-0.2-0.1-0.4-0.1c-0.1,0-0.3,0-0.4,0c-0.1,0-0.2,0.1-0.4,0.1l-0.4,0.2c-0.1,0.1-0.2,0.1-0.3,0.2
			c0,0,0,0.1,0,0.1c0,0,0,0.1,0,0.1c0,0.1,0.1,0.2,0.2,0.2c0.1,0,0.2,0.1,0.3,0.1c0.1,0,0.2,0,0.3,0c0.1,0,0.2,0,0.3,0l0.6,0.4
			c-0.2,0.1-0.4,0.1-0.6,0.1c-0.2,0-0.5,0-0.7-0.1C282.7,259.1,282.5,259,282.3,258.9z"/>
		<path class="st13" d="M285,260.5c-0.2-0.1-0.4-0.3-0.5-0.5c0-0.1,0-0.2,0-0.3c0-0.1,0-0.2,0.1-0.2c0.2-0.2,0.4-0.4,0.6-0.5
			c0.3-0.1,0.6-0.3,0.9-0.3c0.3,0,0.6,0,0.9,0c0.3,0,0.6,0.1,0.8,0.3c0.2,0.1,0.3,0.2,0.4,0.4c0,0.1,0.1,0.1,0.1,0.2
			c0,0.1,0,0.1,0,0.2c-0.1,0.2-0.2,0.3-0.4,0.4l-0.7-0.4c0,0,0.1-0.1,0.1-0.1c0,0,0.1-0.1,0.1-0.2c0-0.1-0.1-0.2-0.2-0.2
			c-0.1-0.1-0.2-0.1-0.4-0.1c-0.2,0-0.3,0-0.5,0c-0.2,0-0.3,0.1-0.5,0.2c-0.1,0.1-0.3,0.2-0.4,0.3c0,0-0.1,0.1-0.1,0.1
			c0,0,0,0.1,0,0.1c0,0,0,0.1,0.1,0.1c0,0,0.1,0.1,0.1,0.1c0.1,0,0.2,0.1,0.3,0.1c0.1,0,0.2,0,0.3,0c0.1,0,0.2,0,0.3-0.1l0.7,0.4
			c-0.2,0.1-0.5,0.2-0.7,0.2c-0.2,0-0.5,0-0.8,0C285.5,260.8,285.2,260.6,285,260.5z"/>
		<path class="st13" d="M290.7,260.7l-0.6,0.3l-1.5-0.9l0.6-0.3L290.7,260.7z M290.1,259.7l0.7,0.4l-2.5,1.4c0,0-0.1,0.1-0.1,0.1
			c0,0,0,0,0,0s0,0,0,0c0,0,0.1,0.1,0.1,0.1c0,0,0.1,0,0.1,0.1l0.1,0l-0.4,0.4l-0.2-0.1c-0.1,0-0.2-0.1-0.3-0.1
			c-0.1-0.1-0.3-0.2-0.4-0.3c0,0-0.1-0.1-0.1-0.1c0-0.1,0-0.1,0-0.2c0.1-0.1,0.2-0.2,0.3-0.3L290.1,259.7z"/>
		<path class="st13" d="M288.8,262.7c0,0-0.1-0.1-0.1-0.1c0,0,0-0.1,0-0.1c0-0.1,0-0.1,0.1-0.1c0,0,0.1-0.1,0.1-0.1
			c0.1-0.1,0.3-0.1,0.4-0.1c0.1,0,0.3,0,0.4,0.1c0,0,0.1,0.1,0.1,0.1c0,0,0,0.1,0,0.1c0,0,0,0.1-0.1,0.1c0,0-0.1,0.1-0.1,0.1
			c-0.1,0-0.2,0.1-0.3,0.1c-0.1,0-0.2,0-0.3,0C288.9,262.8,288.9,262.7,288.8,262.7z"/>
		<path class="st13" d="M289.8,263.2l3.6-2l1.3,0.8c0.2,0.1,0.4,0.3,0.5,0.5c0,0.1,0.1,0.2,0.1,0.2c0,0.1,0,0.2-0.1,0.2
			c-0.1,0.2-0.3,0.3-0.5,0.4c-0.2,0.1-0.5,0.2-0.8,0.3c-0.3,0-0.6,0-0.8,0c-0.3,0-0.6-0.1-0.8-0.3l-0.8-0.5l0.6-0.3l0.7,0.4
			c0.2,0.1,0.5,0.2,0.8,0.1c0.1,0,0.3-0.1,0.4-0.1c0.1,0,0.2-0.1,0.2-0.2c0,0,0-0.1,0-0.1c0,0,0-0.1,0-0.1c-0.1-0.1-0.2-0.2-0.3-0.2
			l-0.5-0.3l-3,1.6L289.8,263.2z"/>
		<path class="st13" d="M292.9,265l-0.8-0.4l4.7-1.3l0.9,0.5l-2.4,2.6l-0.7-0.4l1.9-2h0L292.9,265z M294.3,264.2l1.8,1l-0.6,0.3
			l-1.8-1L294.3,264.2z"/>
		<path class="st13" d="M298.2,264.7l0.6-0.3l2.7,1.6l-0.6,0.3l-1-0.6l-2.9,1.6l-0.7-0.4l2.9-1.6L298.2,264.7z"/>
		<path class="st13" d="M303.4,268.5l-0.7-0.4c0.1,0,0.1-0.1,0.2-0.2c0-0.1,0-0.1,0-0.2c0-0.1,0-0.1-0.1-0.2
			c-0.1-0.1-0.1-0.1-0.2-0.2c-0.2-0.1-0.4-0.2-0.6-0.2c-0.2,0-0.5,0-0.7,0.1c-0.3,0.1-0.5,0.2-0.7,0.3c-0.2,0.1-0.4,0.2-0.5,0.4
			c0,0.1-0.1,0.1-0.1,0.2c0,0.1,0,0.1,0,0.2c0.1,0.1,0.2,0.3,0.3,0.3c0.1,0.1,0.2,0.1,0.3,0.1c0.1,0,0.2,0.1,0.3,0.1
			c0.1,0,0.2,0,0.3,0c0.1,0,0.2-0.1,0.3-0.1l0.7,0.4c-0.2,0.1-0.4,0.1-0.6,0.2c-0.2,0-0.5,0.1-0.7,0.1c-0.2,0-0.5,0-0.7-0.1
			c-0.2-0.1-0.5-0.2-0.7-0.3c-0.2-0.1-0.4-0.3-0.6-0.6c0-0.1-0.1-0.2,0-0.3c0-0.1,0.1-0.2,0.1-0.3c0.2-0.3,0.5-0.5,0.8-0.7
			c0.4-0.2,0.8-0.4,1.2-0.4c0.4-0.1,0.8-0.1,1.2,0c0.3,0,0.7,0.2,1,0.3c0.2,0.1,0.3,0.2,0.4,0.4c0.1,0.1,0.2,0.2,0.2,0.4
			c0,0.1,0,0.3-0.1,0.4C303.6,268.3,303.5,268.4,303.4,268.5z"/>
		<path class="st13" d="M301.6,270.1l3.5-2l0.7,0.4l-1.4,0.8l1.4,0.8l1.4-0.8l0.7,0.4l-3.5,2l-0.7-0.4l1.4-0.8l-1.4-0.8l-1.4,0.8
			L301.6,270.1z"/>
		<path class="st13" d="M307.7,271.4c0.7-0.4,1.5-0.7,2.3-0.8l0.5,0.3c-0.2,0-0.3,0.1-0.5,0.1c-0.2,0.1-0.4,0.1-0.6,0.2
			c-0.2,0.1-0.4,0.2-0.6,0.2c-0.2,0.1-0.4,0.2-0.5,0.3c-0.2,0.1-0.4,0.3-0.6,0.5c-0.2,0.1-0.3,0.3-0.5,0.5c-0.1,0.1-0.2,0.3-0.3,0.4
			l-0.5-0.3c0.1-0.3,0.3-0.5,0.5-0.7C307.1,271.8,307.4,271.6,307.7,271.4z"/>
		<path class="st13" d="M310.6,273.1c-0.3,0.2-0.7,0.4-1.1,0.5c-0.4,0.1-0.8,0.2-1.2,0.3l-0.5-0.3c0.2,0,0.4-0.1,0.5-0.1
			c0.2-0.1,0.4-0.1,0.6-0.2c0.2-0.1,0.4-0.2,0.6-0.2c0.2-0.1,0.4-0.2,0.5-0.3c0.2-0.1,0.4-0.3,0.6-0.5c0.2-0.1,0.3-0.3,0.5-0.5
			c0.1-0.1,0.2-0.3,0.3-0.4l0.5,0.3c-0.1,0.3-0.3,0.5-0.5,0.7C311.1,272.7,310.9,272.9,310.6,273.1z"/>
	</g>
	<path class="st1" d="M398.3,171.2c-0.3,2.9-1.4,5.9-3.4,7.7c-0.2,0.2-0.4,0.4-0.6,0.6l-0.1,0.1c-0.2,0.2-0.4,0.3-0.6,0.5l-0.1,0.1
		c-0.2,0.2-0.4,0.3-0.6,0.4l-0.2,0.1c-0.3,0.2-0.5,0.3-0.8,0.5L262.4,257c-3.9,2.3-8.2,3.6-12.7,3.6c-4.5,0-9-0.5-12.9-2.7
		L26.6,136.2c-0.3-0.2-0.6-0.4-0.9-0.6l-0.2-0.2c-0.2-0.1-0.4-0.3-0.6-0.4l-0.2-0.2l-0.6-0.5l-0.2-0.2c-0.5-0.5-0.9-1-1.3-1.5
		c-0.2-0.3-0.4-0.5-0.5-0.8l0-0.1c-0.2-0.3-0.3-0.5-0.4-0.8c-0.9-1.8-1.3-3.8-1.3-5.7v4.8c0,2.2,0.6,4.5,1.7,6.4
		c1.1,1.9,2.7,3.6,4.7,4.7l209.1,120.7c3.9,2.3,8.4,3.5,12.9,3.5c4.5,0,9-1.2,12.9-3.5L392,186.1c1.8-1,3.3-2.4,4.4-4.2
		s1.9-3.7,1.9-5.8c0,0,0-1.3,0-2.4V171.2z"/>
	<path class="st2" d="M22.2,131.9v4.9"/>
	<path class="st2" d="M24.6,134.8v5"/>
	<path class="st2" d="M27,136.5v4.8"/>
	<path class="st2" d="M29.4,138v4.9"/>
	<path class="st2" d="M31.8,139.3v4.9"/>
	<path class="st2" d="M34.2,140.6v4.9"/>
	<path class="st2" d="M36.6,142.1v4.8"/>
	<path class="st2" d="M39,143.4v4.9"/>
	<path class="st2" d="M41.4,144.6v5.1"/>
	<path class="st2" d="M43.7,146.2v5"/>
	<path class="st2" d="M46.1,147.4v4.8"/>
	<path class="st2" d="M48.5,148.9v4.9"/>
	<path class="st2" d="M50.9,150.5v4.8"/>
	<path class="st2" d="M53.3,151.7v4.8"/>
	<path class="st2" d="M55.7,152.9v4.9"/>
	<path class="st2" d="M58.1,154.5v4.8"/>
	<path class="st2" d="M60.5,156v4.8"/>
	<path class="st2" d="M62.9,157.2v4.8"/>
	<path class="st2" d="M65.3,158.6v4.9"/>
	<path class="st2" d="M67.8,159.8v5"/>
	<path class="st2" d="M70.1,161.5v4.8"/>
	<path class="st2" d="M72.5,162.7v4.9"/>
	<path class="st2" d="M74.9,164.3v4.9"/>
	<path class="st2" d="M77.3,165.5v4.9"/>
	<path class="st2" d="M79.7,166.9v4.8"/>
	<path class="st2" d="M82.1,168.3v4.8"/>
	<path class="st2" d="M84.5,169.6v4.9"/>
	<path class="st2" d="M86.9,170.9v4.8"/>
	<path class="st2" d="M89.3,172.5v4.8"/>
	<path class="st2" d="M91.7,173.7v4.8"/>
	<path class="st2" d="M94.1,175.4v4.5"/>
	<path class="st2" d="M96.5,176.9v4.4"/>
	<path class="st2" d="M98.9,178.3v4.5"/>
	<path class="st2" d="M101.3,179.6v4.6"/>
	<path class="st2" d="M103.7,181v4.7"/>
	<path class="st2" d="M106.1,182.4v4.8"/>
	<path class="st2" d="M108.5,183.7v4.3"/>
	<path class="st2" d="M110.9,185v4.5"/>
	<path class="st2" d="M113.3,186.3v4.5"/>
	<path class="st2" d="M115.7,187.8v4.5"/>
	<path class="st2" d="M118.1,189.1v4.6"/>
	<path class="st2" d="M120.5,190.4v4.6"/>
	<path class="st2" d="M122.9,191.8v4.6"/>
	<path class="st2" d="M125.3,193.3v4.5"/>
	<path class="st2" d="M127.7,194.7v4.5"/>
	<path class="st2" d="M130.1,196v4.6"/>
	<path class="st2" d="M132.5,197.3v4.7"/>
	<path class="st2" d="M134.9,198.7v4.4"/>
	<path class="st2" d="M137.2,200.2v4.6"/>
	<path class="st2" d="M139.6,201.5v4.6"/>
	<path class="st2" d="M142,203v4.3"/>
	<path class="st2" d="M144.4,204.4v4.5"/>
	<path class="st2" d="M146.9,205.7v4.7"/>
	<path class="st2" d="M149.3,207.3v4.3"/>
	<path class="st2" d="M151.6,208.4v4.4"/>
	<path class="st2" d="M154,209.9v4.4"/>
	<path class="st2" d="M156.4,211.1v4.6"/>
	<path class="st2" d="M158.9,212.6v4.6"/>
	<path class="st2" d="M161.2,213.9v4.5"/>
	<path class="st2" d="M163.6,215.6v4.3"/>
	<path class="st2" d="M166,217v4.4"/>
	<path class="st2" d="M168.4,218.4v4.4"/>
	<path class="st2" d="M170.8,219.5v4.5"/>
	<path class="st2" d="M173.2,221.2v4.4"/>
	<path class="st2" d="M175.6,222.4v4.6"/>
	<path class="st2" d="M178,223.7v4.5"/>
	<path class="st2" d="M180.4,225.3v4.4"/>
	<path class="st2" d="M182.8,226.4v4.6"/>
	<path class="st2" d="M185.2,227.8v4.6"/>
	<path class="st2" d="M187.6,229.4v4.2"/>
	<path class="st2" d="M190,230.6v4.4"/>
	<path class="st2" d="M192.4,232.4v4.2"/>
	<path class="st2" d="M194.8,233.6v4.4"/>
	<path class="st2" d="M197.2,235v4.3"/>
	<path class="st2" d="M199.6,236.4v4.2"/>
	<path class="st2" d="M202,237.6v4.6"/>
	<path class="st2" d="M204.4,239.4v4"/>
	<path class="st2" d="M206.8,240.3v4.5"/>
	<path class="st2" d="M209.2,241.7v4.5"/>
	<path class="st2" d="M211.6,243.4v4.4"/>
	<path class="st2" d="M214,244.8v4.3"/>
	<path class="st2" d="M216.4,246v4.5"/>
	<path class="st2" d="M218.8,247.3v4.3"/>
	<path class="st2" d="M221.2,248.8v4.3"/>
	<path class="st2" d="M223.6,249.9v4.6"/>
	<path class="st2" d="M226,251.8v4.1"/>
	<path class="st2" d="M228.4,253.1v4.1"/>
	<path class="st2" d="M230.7,254.5v4.3"/>
	<path class="st2" d="M233.1,255.9v4.3"/>
	<path class="st2" d="M235.5,257.4v4.3"/>
	<path class="st2" d="M237.9,258.8v4.1"/>
	<path class="st2" d="M240.3,259.5v4.3"/>
	<path class="st2" d="M242.7,260.5v3.9"/>
	<path class="st2" d="M245.1,260.3v4.3"/>
	<path class="st2" d="M247.5,260.7v4.2"/>
	<path class="st2" d="M249.9,260.7v4.2"/>
	<path class="st2" d="M252.3,260.6v4.1"/>
	<path class="st2" d="M254.7,260v4.2"/>
	<path class="st2" d="M257.1,259.3v4.5"/>
	<path class="st2" d="M259.5,258.3v4.4"/>
	<path class="st2" d="M261.9,257.1v4.3"/>
	<path class="st2" d="M264.3,255.7v4.3"/>
	<path class="st2" d="M266.7,253.3v5.3"/>
	<path class="st2" d="M269.1,253v4.4"/>
	<path class="st2" d="M271.5,251.6v4.5"/>
	<path class="st2" d="M273.9,250.3v4.4"/>
	<path class="st2" d="M276.3,248.9v4.4"/>
	<path class="st2" d="M278.7,247.4v4.4"/>
	<path class="st2" d="M281.1,246.1v4.2"/>
	<path class="st2" d="M283.5,244.6v4.3"/>
	<path class="st2" d="M285.9,243.4v4.2"/>
	<path class="st2" d="M288.3,241.9v4.4"/>
	<path class="st2" d="M290.7,240.5v4.2"/>
	<path class="st2" d="M293.1,239v4.3"/>
	<path class="st2" d="M295.5,237.8v4.1"/>
	<path class="st2" d="M297.9,236.4v4.6"/>
	<path class="st2" d="M300.3,234.8v4.3"/>
	<path class="st2" d="M302.7,233.5v4.6"/>
	<path class="st2" d="M305.1,231.8v4.6"/>
	<path class="st2" d="M307.5,230.6v4.4"/>
	<path class="st2" d="M309.9,229.3v4.5"/>
	<path class="st2" d="M312.3,227.9v4.5"/>
	<path class="st2" d="M314.7,226.6v4.3"/>
	<path class="st2" d="M317.1,225.2v4.4"/>
	<path class="st2" d="M319.5,223.7v4.5"/>
	<path class="st2" d="M321.9,222.4v4.3"/>
	<path class="st2" d="M324.2,220.9v4.6"/>
	<path class="st2" d="M326.6,219.6v4.4"/>
	<path class="st2" d="M329,218.3v4.3"/>
	<path class="st2" d="M331.4,216.8v4.4"/>
	<path class="st2" d="M333.8,215.3v4.5"/>
	<path class="st2" d="M336.2,214v4.7"/>
	<path class="st2" d="M338.6,212.5v4.5"/>
	<path class="st2" d="M341,211.1v4.5"/>
	<path class="st2" d="M343.4,209.7v4.5"/>
	<path class="st2" d="M345.8,208.4v4.5"/>
	<path class="st2" d="M348.2,207v4.4"/>
	<path class="st2" d="M350.6,205.6v4.5"/>
	<path class="st2" d="M353,204.1v4.6"/>
	<path class="st2" d="M355.4,202.8v4.7"/>
	<path class="st2" d="M357.8,201.3v4.5"/>
	<path class="st2" d="M360.2,199.8v4.5"/>
	<path class="st2" d="M362.6,198.5v4.6"/>
	<path class="st2" d="M365,197.2v4.5"/>
	<path class="st2" d="M367.4,195.7v4.7"/>
	<path class="st2" d="M369.8,194.4v4.6"/>
	<path class="st2" d="M372.2,192.9v4.6"/>
	<path class="st2" d="M374.6,191.5v4.6"/>
	<path class="st2" d="M377,190.3v4.3"/>
	<path class="st2" d="M379.4,188.9v4.3"/>
	<path class="st2" d="M381.8,187v4.8"/>
	<path class="st2" d="M384.2,185.7v5"/>
	<path class="st2" d="M386.6,184.4v4.9"/>
	<path class="st2" d="M389,182.9v5"/>
	<path class="st2" d="M391.4,181.7v4.9"/>
	<path class="st2" d="M393.8,180.2v4.6"/>
	<path class="st2" d="M396.2,177.4v4.8"/>
	<path class="st3" d="M398.3,171.2c-0.3,2.9-1.4,5.9-3.4,7.7c-0.2,0.2-0.4,0.4-0.6,0.6l-0.1,0.1c-0.2,0.2-0.4,0.3-0.6,0.5l-0.1,0.1
		c-0.2,0.2-0.4,0.3-0.6,0.4l-0.2,0.1c-0.3,0.2-0.5,0.3-0.8,0.5L262.4,257c-3.9,2.3-8.2,3.6-12.7,3.6c-4.5,0-9-0.5-12.9-2.7
		L26.6,136.2c-0.3-0.2-0.6-0.4-0.9-0.6l-0.2-0.2c-0.2-0.1-0.4-0.3-0.6-0.4l-0.2-0.2l-0.6-0.5l-0.2-0.2c-0.5-0.5-0.9-1-1.3-1.5
		c-0.2-0.3-0.4-0.5-0.5-0.8l0-0.1c-0.2-0.3-0.3-0.5-0.4-0.8c-0.9-1.8-1.3-3.8-1.3-5.7v4.8c0,2.2,0.6,4.5,1.7,6.4
		c1.1,1.9,2.7,3.6,4.7,4.7l209.1,120.7c3.9,2.3,8.4,3.5,12.9,3.5s9-1.2,12.9-3.5L392,186.1c1.8-1,3.3-2.4,4.4-4.2s1.9-3.7,1.9-5.8
		c0,0,0-1.3,0-2.4V171.2z"/>
	<g>
		<path class="st4" d="M262.4,257.6l130-76c2-1.1,3.6-2.8,4.7-4.7c1.1-2,1.7-4.2,1.7-6.4c0-2.3-0.4-4.5-1.5-6.8
			c-1.2-2.4-2.9-4.3-4.9-5.4L181.6,34.5c-3.9-2.3-7.3-3.3-11.9-3.3c-6.4,0-10.4,3.2-14.3,5.4L26.2,114.3c-1.9,1.1-3.6,2.8-4.7,4.7
			s-1.7,4.2-1.7,6.4c0,2.3,0.6,4.5,1.7,6.4c1.1,2,2.7,3.6,4.7,4.7l210.1,121.9c3.9,2.3,8.5,3.3,13.1,3.3
			C253.9,261.7,258.4,259.9,262.4,257.6z"/>
		<path class="st3" d="M392.1,181.2L392.1,181.2c1.9-1.1,3.4-2.6,4.5-4.5c1.1-1.9,1.7-4,1.7-6.2c0-2.2-0.4-4.4-1.5-6.5
			c-1.1-2.3-2.8-4.1-4.7-5.2l0,0L181.4,35c0,0,0,0,0,0c-3.8-2.2-7.2-3.2-11.6-3.2c-5.3,0-8.9,2.2-12.2,4.2c-0.6,0.4-1.2,0.8-1.8,1.1
			c0,0,0,0,0,0L26.5,114.7l0,0l0,0c-1.9,1.1-3.4,2.6-4.5,4.5c-1.1,1.9-1.7,4-1.7,6.2c0,2.2,0.6,4.3,1.7,6.2c1.1,1.9,2.6,3.4,4.5,4.5
			h0L236.6,258h0c3.8,2.2,8.4,3.2,12.8,3.2c4.4,0,8.8-1.8,12.7-4.1L392.1,181.2z M392.1,181.2l-130,76L392.1,181.2z"/>
	</g>
	<path class="st19" d="M203.8,186.6l-27-15.8v-7.8l50.7-21.6l-27.1-15.7l-50.6,29.4l-26.9-15.7v-7.8l66.7-32.4
		c8.4-4.9,21.3-5.3,28.8-1l54.3,31.4c7.5,4.3,6.8,11.8-1.7,16.7L203.8,186.6z"/>
	<path class="st20" d="M204.1,178.9l-27.3-15.8l51.1-29.4L200.7,118l-50.8,29.4l-27-15.7l65.9-38.2c8.4-4.9,21.3-5.3,28.9-1
		l54.5,31.4c7.6,4.3,6.8,11.8-1.7,16.7L204.1,178.9z"/>
	<path class="st21" d="M203.9,186.7l-27.1-15.8v-7.8l50.8-21.6l-27.1-15.7l-50.6,29.4l-26.9-15.7v-7.8l66.7-32.4
		c8.4-4.9,21.3-5.3,28.8-1l54.3,31.4c2.7,1.5,4.2,3.3,4.7,5.4c0,0,0,1.2,0,1.8c0,5.2-1.8,6.9-6.4,9.5L203.9,186.7z"/>
	<path class="st21" d="M149.8,147.4v7.8"/>
	<path class="st21" d="M200.4,118v7.8"/>
	<path class="st21" d="M203.9,178.9v7.8"/>
	<line class="st12" x1="277.4" y1="136.2" x2="277.4" y2="131.8"/>
	<path class="st7" d="M0.6,121.1l253.2,146.8"/>
	<path class="st7" d="M1,130L176.1,24.8"/>
	<path class="st7" d="M416.6,173.1l-252-148"/>
	<path class="st7" d="M243.8,267.9l173.7-101.4"/>
	<g>
		<path class="st0" d="M8.6,92.8c-0.2-0.2-0.5-0.2-0.7,0l-3.2,3.2c-0.2,0.2-0.2,0.5,0,0.7c0.2,0.2,0.5,0.2,0.7,0l2.8-2.8l2.8,2.8
			c0.2,0.2,0.5,0.2,0.7,0c0.2-0.2,0.2-0.5,0-0.7L8.6,92.8z M7.8,93.1v1.6h1v-1.6H7.8z M7.8,101.2v3.2h1v-3.2H7.8z M7.8,110.8v3.2h1
			v-3.2H7.8z M7.8,120.5v3.2h1v-3.2H7.8z M7.8,130.1v3.2h1v-3.2H7.8z M7.8,139.8v3.2h1v-3.2H7.8z M7.8,149.4v3.2h1v-3.2H7.8z
			 M7.8,159.1v3.2h1v-3.2H7.8z M7.8,168.7v3.2h1v-3.2H7.8z M7.8,178.4v3.2h1v-3.2H7.8z M7.8,188v3.2h1V188H7.8z M7.8,197.7v3.2h1
			v-3.2H7.8z M7.8,207.4v3.2h1v-3.2H7.8z M7.8,217v3.2h1V217H7.8z M7.8,226.7v3.2h1v-3.2H7.8z M7.8,236.3v3.2h1v-3.2H7.8z M7.8,246
			v3.2h1V246H7.8z M7.8,255.6v3.2h1v-3.2H7.8z M7.8,265.3v3.2h1v-3.2H7.8z M7.8,274.9v3.2h1v-3.2H7.8z M7.8,284.6v3.2h1v-3.2H7.8z
			 M7.8,294.2v3.2h1v-3.2H7.8z M7.8,303.9v3.2h1v-3.2H7.8z M7.8,313.5v3.2h1v-3.2H7.8z M7.8,323.2v3.2h1v-3.2H7.8z M7.8,332.9v3.2h1
			v-3.2H7.8z M7.8,342.5v3.2h1v-3.2H7.8z M7.8,352.2v3.2h1v-3.2H7.8z M7.8,361.8v3.2h1v-3.2H7.8z M7.8,371.5v3.2h1v-3.2H7.8z
			 M7.8,381.1v3.2h1v-3.2H7.8z M7.8,390.8v3.2h1v-3.2H7.8z M7.8,400.4v3.2h1v-3.2H7.8z M7.8,410.1v1.6h1v-1.6H7.8z"/>
	</g>
	<g>
		<path class="st0" d="M249.1,241.8c-0.2-0.2-0.5-0.2-0.7,0l-3.2,3.2c-0.2,0.2-0.2,0.5,0,0.7s0.5,0.2,0.7,0l2.8-2.8l2.8,2.8
			c0.2,0.2,0.5,0.2,0.7,0c0.2-0.2,0.2-0.5,0-0.7L249.1,241.8z M248.2,242.2v1.6h1v-1.6H248.2z M248.2,250.2v3.2h1v-3.2H248.2z
			 M248.2,259.9v3.2h1v-3.2H248.2z M248.2,269.5v3.2h1v-3.2H248.2z M248.2,279.2v3.2h1v-3.2H248.2z M248.2,288.8v3.2h1v-3.2H248.2z
			 M248.2,298.5v3.2h1v-3.2H248.2z M248.2,308.1v3.2h1v-3.2H248.2z M248.2,317.8v3.2h1v-3.2H248.2z M248.2,327.4v3.2h1v-3.2H248.2z
			 M248.2,337.1v3.2h1v-3.2H248.2z M248.2,346.7v3.2h1v-3.2H248.2z M248.2,356.4v3.2h1v-3.2H248.2z M248.2,366.1v3.2h1v-3.2H248.2z
			 M248.2,375.7v3.2h1v-3.2H248.2z M248.2,385.4v3.2h1v-3.2H248.2z M248.2,395v3.2h1V395H248.2z M248.2,404.7v3.2h1v-3.2H248.2z
			 M248.2,414.3v3.2h1v-3.2H248.2z M248.2,424v3.2h1V424H248.2z M248.2,433.6v3.2h1v-3.2H248.2z M248.2,443.3v3.2h1v-3.2H248.2z
			 M248.2,452.9v3.2h1v-3.2H248.2z M248.2,462.6v3.2h1v-3.2H248.2z M248.2,472.2v3.2h1v-3.2H248.2z M248.2,481.9v3.2h1v-3.2H248.2z
			 M248.2,491.6v3.2h1v-3.2H248.2z M248.2,501.2v3.2h1v-3.2H248.2z M248.2,510.9v3.2h1v-3.2H248.2z M248.2,520.5v3.2h1v-3.2H248.2z
			 M248.2,530.2v3.2h1v-3.2H248.2z M248.2,539.8v3.2h1v-3.2H248.2z M248.2,549.5v3.2h1v-3.2H248.2z M248.2,559.1v1.6h1v-1.6H248.2z"
			/>
	</g>
</g>
</svg>
