<svg width="26" height="25" viewBox="0 0 26 25" fill="none" xmlns="http://www.w3.org/2000/svg">
<path d="M7.60551 24.4316L24.3542 24.4316C25.0657 24.4316 25.6425 23.8548 25.6425 23.1433L25.6425 6.39464C25.6425 5.6831 25.0657 5.10628 24.3542 5.10628L7.60551 5.10628C6.89397 5.10628 6.31715 5.6831 6.31715 6.39464L6.31715 23.1433C6.31715 23.8548 6.89397 24.4316 7.60551 24.4316Z" fill="url(#paint0_linear_325_691)" fill-opacity="0.8"/>
<path d="M18.1698 0.983521H1.42117C0.70963 0.983521 0.132812 1.56034 0.132812 2.27188V19.0205C0.132812 19.7321 0.70963 20.3089 1.42117 20.3089H18.1698C18.8814 20.3089 19.4582 19.7321 19.4582 19.0205V2.27188C19.4582 1.56034 18.8814 0.983521 18.1698 0.983521Z" fill="#6A86F2"/>
<path d="M13.0167 10.0149V4.86145" stroke="white" stroke-width="1.5" stroke-linecap="round" stroke-linejoin="round"/>
<path d="M13.0167 16.4567V13.88" stroke="white" stroke-width="1.5" stroke-linecap="round" stroke-linejoin="round"/>
<path fill-rule="evenodd" clip-rule="evenodd" d="M14.9492 11.9474C14.9492 12.3296 14.8358 12.7033 14.6235 13.0211C14.4111 13.3389 14.1093 13.5866 13.7562 13.7329C13.4031 13.8791 13.0145 13.9174 12.6396 13.8428C12.2647 13.7683 11.9204 13.5842 11.6501 13.3139C11.3799 13.0437 11.1958 12.6993 11.1212 12.3244C11.0467 11.9496 11.0849 11.561 11.2312 11.2079C11.3775 10.8548 11.6252 10.5529 11.943 10.3406C12.2608 10.1282 12.6344 10.0149 13.0166 10.0149C13.5292 10.0149 14.0207 10.2185 14.3832 10.5809C14.7456 10.9433 14.9492 11.4349 14.9492 11.9474Z" stroke="white" stroke-width="1.5" stroke-linecap="round" stroke-linejoin="round"/>
<path d="M6.57532 8.72656V16.4567" stroke="white" stroke-width="1.5" stroke-linecap="round" stroke-linejoin="round"/>
<path fill-rule="evenodd" clip-rule="evenodd" d="M8.50741 6.79399C8.50741 6.41177 8.39407 6.03813 8.18172 5.72033C7.96937 5.40252 7.66754 5.15483 7.31442 5.00856C6.96129 4.86229 6.57273 4.82402 6.19785 4.89858C5.82298 4.97315 5.47863 5.15721 5.20836 5.42748C4.93809 5.69775 4.75404 6.04209 4.67947 6.41697C4.6049 6.79184 4.64317 7.18041 4.78944 7.53354C4.93571 7.88666 5.18341 8.18848 5.50121 8.40083C5.81902 8.61318 6.19265 8.72652 6.57487 8.72652C7.08741 8.72652 7.57896 8.52292 7.94138 8.1605C8.3038 7.79807 8.50741 7.30653 8.50741 6.79399V6.79399Z" stroke="white" stroke-width="1.5" stroke-linecap="round" stroke-linejoin="round"/>
<defs>
<linearGradient id="paint0_linear_325_691" x1="13.1884" y1="4.61076" x2="13.1884" y2="23.4406" gradientUnits="userSpaceOnUse">
<stop stop-color="#FDCB3F"/>
<stop offset="1" stop-color="white"/>
</linearGradient>
</defs>
</svg>
