<svg width="28" height="29" viewBox="0 0 28 29" fill="none" xmlns="http://www.w3.org/2000/svg">
<path d="M5.3501 9.18771V1.93751" stroke="#2D4AB8" stroke-width="3" stroke-linecap="round" stroke-linejoin="round"/>
<path d="M15.0173 9.18771V1.93751" stroke="#2D4AB8" stroke-width="3" stroke-linecap="round" stroke-linejoin="round"/>
<path d="M17.8153 28.1875C15.2514 28.1875 12.7926 27.1691 10.9797 25.3562C9.16679 23.5433 8.14832 21.0844 8.14832 18.5206V13.6871C8.14832 13.0462 8.40293 12.4315 8.85616 11.9782C9.30939 11.525 9.92409 11.2704 10.565 11.2704H25.0655C25.7064 11.2704 26.3211 11.525 26.7743 11.9782C27.2276 12.4315 27.4822 13.0462 27.4822 13.6871V18.5206C27.4822 21.0844 26.4637 23.5433 24.6508 25.3562C22.8379 27.1691 20.3791 28.1875 17.8153 28.1875Z" fill="url(#paint0_linear_325_341)" fill-opacity="0.8"/>
<path d="M10.1838 24.3717C7.61995 24.3717 5.16113 23.3532 3.34823 21.5403C1.53532 19.7274 0.516846 17.2686 0.516846 14.7047V9.87126C0.516846 9.23031 0.771465 8.6156 1.22469 8.16237C1.67792 7.70915 2.29262 7.45453 2.93358 7.45453H17.434C18.0749 7.45453 18.6896 7.70915 19.1429 8.16237C19.5961 8.6156 19.8507 9.23031 19.8507 9.87126V14.7047C19.8507 17.2686 18.8322 19.7274 17.0193 21.5403C15.2064 23.3532 12.7476 24.3717 10.1838 24.3717Z" fill="#6A86F2"/>
<path d="M7.76672 12.4839H12.6002" stroke="white" stroke-width="1.5" stroke-linecap="round" stroke-linejoin="round"/>
<defs>
<linearGradient id="paint0_linear_325_341" x1="20.6079" y1="28.6213" x2="20.6079" y2="12.1379" gradientUnits="userSpaceOnUse">
<stop stop-color="white"/>
<stop offset="1" stop-color="#FCBA01"/>
</linearGradient>
</defs>
</svg>
