<svg width="368" height="26" viewBox="0 0 368 26" fill="none" xmlns="http://www.w3.org/2000/svg">
<path d="M0.676136 9.25702H3.87784V18.3451H5.1108V9.25702H8.3125V8.16327H0.676136V9.25702ZM11.2296 13.7513C11.2296 12.419 12.0797 11.6633 13.2381 11.6633C14.3418 11.6633 15.008 12.3593 15.008 13.5724V18.3451H16.1813V13.4928C16.1813 11.529 15.1373 10.6093 13.5762 10.6093C12.373 10.6093 11.687 11.1114 11.329 11.9019H11.2296V8.16327H10.0563V18.3451H11.2296V13.7513ZM21.5295 18.5042C23.0806 18.5042 24.2141 17.7286 24.5721 16.5752L23.4386 16.257C23.1403 17.0525 22.4492 17.4502 21.5295 17.4502C20.1523 17.4502 19.2028 16.5603 19.1481 14.9246H24.6914V14.4275C24.6914 11.5837 23.0011 10.6093 21.4102 10.6093C19.342 10.6093 17.9698 12.24 17.9698 14.5866C17.9698 16.9332 19.3221 18.5042 21.5295 18.5042ZM19.1481 13.9104C19.2276 12.7222 20.0678 11.6633 21.4102 11.6633C22.6829 11.6633 23.4982 12.6178 23.4982 13.9104H19.1481ZM26.9995 21.2087C28.0584 21.2087 28.8042 20.6469 29.2466 19.4587L32.498 10.7286L31.2154 10.7087L29.1074 16.794H29.0279L26.9199 10.7087H25.6472L28.4711 18.3849L28.2523 18.9815C27.8248 20.1448 27.2978 20.2542 26.4426 20.0354L26.1444 21.0695C26.2637 21.1292 26.6017 21.2087 26.9995 21.2087ZM41.3089 10.7087H39.6783V8.87918H38.505V10.7087H37.3516V11.703H38.505V16.4758C38.505 17.8082 39.5788 18.4445 40.5732 18.4445C41.0107 18.4445 41.2891 18.365 41.4482 18.3053L41.2095 17.2513C41.1101 17.2712 40.951 17.311 40.6925 17.311C40.1754 17.311 39.6783 17.1519 39.6783 16.1576V11.703H41.3089V10.7087ZM43.0739 18.3451H44.2472V13.5127C44.2472 12.4786 45.0625 11.7229 46.1761 11.7229C46.4893 11.7229 46.8125 11.7826 46.892 11.8025V10.6093C46.7578 10.5994 46.4496 10.5894 46.2756 10.5894C45.3608 10.5894 44.5653 11.1065 44.2869 11.8621H44.2074V10.7087H43.0739V18.3451ZM53.0953 15.2229C53.0953 16.6548 52.0016 17.311 51.1266 17.311C50.1522 17.311 49.4561 16.5951 49.4561 15.4815V10.7087H48.2828V15.561C48.2828 17.5099 49.3169 18.4445 50.7488 18.4445C51.9022 18.4445 52.6578 17.828 53.0158 17.0525H53.0953V18.3451H54.2686V10.7087H53.0953V15.2229ZM61.8267 12.419C61.4588 11.3351 60.6335 10.6093 59.1222 10.6093C57.5114 10.6093 56.3182 11.5241 56.3182 12.8167C56.3182 13.8707 56.9446 14.5766 58.3466 14.9048L59.6193 15.203C60.3899 15.382 60.7528 15.7499 60.7528 16.2769C60.7528 16.9332 60.0568 17.4701 58.9631 17.4701C58.0036 17.4701 57.402 17.0575 57.1932 16.2371L56.0795 16.5155C56.353 17.8131 57.4219 18.5042 58.983 18.5042C60.7578 18.5042 61.9659 17.5347 61.9659 16.2173C61.9659 15.1533 61.2997 14.4822 59.9375 14.1491L58.804 13.8707C57.8991 13.6469 57.4915 13.3437 57.4915 12.757C57.4915 12.1008 58.1875 11.6235 59.1222 11.6235C60.1463 11.6235 60.5689 12.1903 60.7727 12.7173L61.8267 12.419ZM67.0531 10.7087H65.4224V8.87918H64.2491V10.7087H63.0957V11.703H64.2491V16.4758C64.2491 17.8082 65.323 18.4445 66.3173 18.4445C66.7548 18.4445 67.0332 18.365 67.1923 18.3053L66.9537 17.2513C66.8542 17.2712 66.6951 17.311 66.4366 17.311C65.9196 17.311 65.4224 17.1519 65.4224 16.1576V11.703H67.0531V10.7087ZM77.568 15.2229C77.568 16.6548 76.4743 17.311 75.5993 17.311C74.6248 17.311 73.9288 16.5951 73.9288 15.4815V10.7087H72.7555V15.561C72.7555 17.5099 73.7896 18.4445 75.2214 18.4445C76.3748 18.4445 77.1305 17.828 77.4885 17.0525H77.568V18.3451H78.7413V10.7087H77.568V15.2229ZM86.2994 12.419C85.9315 11.3351 85.1062 10.6093 83.5948 10.6093C81.984 10.6093 80.7908 11.5241 80.7908 12.8167C80.7908 13.8707 81.4173 14.5766 82.8192 14.9048L84.092 15.203C84.8626 15.382 85.2255 15.7499 85.2255 16.2769C85.2255 16.9332 84.5295 17.4701 83.4357 17.4701C82.4762 17.4701 81.8746 17.0575 81.6658 16.2371L80.5522 16.5155C80.8256 17.8131 81.8945 18.5042 83.4556 18.5042C85.2305 18.5042 86.4386 17.5347 86.4386 16.2173C86.4386 15.1533 85.7724 14.4822 84.4102 14.1491L83.2766 13.8707C82.3718 13.6469 81.9641 13.3437 81.9641 12.757C81.9641 12.1008 82.6602 11.6235 83.5948 11.6235C84.619 11.6235 85.0415 12.1903 85.2454 12.7173L86.2994 12.419ZM89.7559 8.16327H88.4036L88.503 15.4815H89.6564L89.7559 8.16327ZM89.0797 18.4246C89.5719 18.4246 89.9746 18.0219 89.9746 17.5298C89.9746 17.0376 89.5719 16.6349 89.0797 16.6349C88.5875 16.6349 88.1848 17.0376 88.1848 17.5298C88.1848 18.0219 88.5875 18.4246 89.0797 18.4246Z" fill="white"/>
<path opacity="0.8" d="M132.518 25.6901C136.616 25.6901 140.037 23.8758 140.037 19.7943C140.037 16.4246 137.101 15.0641 132.906 14.2548L132.81 14.2345C132.551 14.1831 132.267 14.1328 131.973 14.0771L131.862 14.0557C130.384 13.7688 128.711 13.3278 128.711 11.9545C128.711 10.6261 130.163 10.108 131.551 10.108C133.486 10.108 134.971 10.9825 135.422 12.8932L139.294 11.825C138.294 8.32575 135.229 6.6409 131.583 6.6409C127.872 6.6409 124.548 8.22834 124.548 12.1161C124.548 15.9632 127.664 16.8281 130.881 17.4886L131.084 17.5292L131.389 17.5913C133.68 18.0773 135.714 18.726 135.714 20.1175C135.714 21.705 134.003 22.2241 132.486 22.2241C130.356 22.2241 128.711 21.219 128.098 19.1788L124 20.2802C125.033 24.1348 128.84 25.6901 132.518 25.6901ZM171.463 4.98817C172.915 4.98817 174.141 3.98518 174.141 2.49408C174.141 1.13465 172.979 0 171.463 0C169.882 0 168.784 1.10146 168.784 2.49408C168.784 4.0173 169.946 4.98817 171.463 4.98817ZM160.465 25.6901C161.692 25.6901 163.982 25.2363 165.046 22.0614C165.563 20.4419 165.693 19.0161 165.789 16.4246L165.814 15.9589L165.824 15.8048C165.964 13.4392 166.249 11.2737 167.08 11.2737V7.02946C165.789 7.02946 163.434 7.51544 162.337 10.7877C161.82 12.4405 161.692 14.4807 161.562 16.4246C161.53 16.9705 161.492 17.7059 161.423 18.4477L161.411 18.5815C161.27 20.0415 161.011 21.4791 160.465 21.4791C159.627 21.4791 159.336 18.1094 159.239 16.4246C159.143 14.5139 159.014 12.3752 158.464 10.7556C157.433 7.51544 155.109 7.03054 153.819 7.03054C152.528 7.03054 150.269 7.51544 149.204 10.7556C148.688 12.3752 148.559 14.5128 148.462 16.4246C148.43 16.9812 148.38 17.7198 148.298 18.4616L148.281 18.5964C148.11 20.0554 147.802 21.4791 147.236 21.4791C146.3 21.4791 145.913 17.8825 145.848 16.4246C145.752 13.7035 145.688 10.7556 145.688 7.02946H141.46V7.95217C141.46 9.80721 141.465 11.3668 141.496 12.9082L141.504 13.2079L141.51 13.5055C141.535 14.4507 141.569 15.4023 141.621 16.4246C141.75 18.9508 142.137 20.8636 142.525 21.9972C143.332 24.4592 144.944 25.6901 147.236 25.6901C149.494 25.6901 151.269 24.2643 151.914 21.9972C152.366 20.3123 152.56 18.3685 152.656 16.4246C152.699 15.9001 152.745 15.1615 152.819 14.4068L152.833 14.2698L152.848 14.1317L152.863 13.9947L152.878 13.8577C153.037 12.5143 153.304 11.2737 153.819 11.2737C154.722 11.2737 154.883 14.8382 154.98 16.4246C155.077 18.3685 155.173 20.3444 155.722 21.9972C156.787 25.2363 159.175 25.6901 160.465 25.6901ZM173.625 25.5617V7.02946H169.268V25.5617H173.625ZM182.293 23.0986C180.744 20.9931 180.131 19.1135 180.131 16.1334V0.485972H175.774V16.1334C175.774 20.0533 176.679 22.8396 178.776 25.6901L182.293 23.0986ZM191.266 25.6901C195.429 25.6901 198.171 23.2282 199.333 20.2802L195.332 19.2109C194.719 20.7983 193.331 21.8024 191.363 21.8024C188.911 21.8024 186.749 19.9238 186.621 17.0079H199.946C200.462 11.4685 197.236 6.6409 191.233 6.6409C186.104 6.6409 182.295 10.4966 182.295 16.1334C182.295 21.4138 185.878 25.6901 191.266 25.6901ZM195.751 13.7357H186.717C187.136 11.6623 189.008 10.2375 191.234 10.2375C193.621 10.2375 195.429 11.8571 195.751 13.7357Z" fill="white"/>
<g opacity="0.8" clip-path="url(#clip0_2_1764)">
<path fill-rule="evenodd" clip-rule="evenodd" d="M243.609 15.2709C243.792 15.0879 243.792 14.7799 243.609 14.5971C243.609 14.5971 240.115 11.0931 240.096 11.0931C239.999 10.9968 239.951 10.8813 239.951 10.7562C239.961 10.631 240.009 10.5155 240.096 10.4193L247.277 3.23813C247.373 3.14187 247.431 3.02635 247.431 2.88196C247.431 2.62205 247.219 2.41028 246.959 2.41028H239.971C239.845 2.41028 239.72 2.46804 239.634 2.55467L232.395 9.79356C232.154 10.0438 232 10.3808 232 10.7562C232 11.1316 232.145 11.4589 232.385 11.7091L239.441 18.7651C239.624 18.948 239.932 18.948 240.115 18.7651L243.609 15.2709ZM248.422 10.4193C248.24 10.6022 248.24 10.9102 248.422 11.0931L251.936 14.5971C252.023 14.6933 252.071 14.8088 252.071 14.934C252.071 15.0591 252.032 15.1843 251.936 15.2709L244.755 22.452C244.659 22.5386 244.601 22.6638 244.601 22.8082C244.601 23.0681 244.813 23.2798 245.072 23.2798H252.061C252.186 23.2798 252.311 23.2221 252.398 23.1355L259.637 15.8966C259.878 15.6463 260.032 15.3094 260.032 14.934C260.032 14.5585 259.878 14.2312 259.647 13.981L252.591 6.925C252.408 6.7421 252.1 6.7421 251.917 6.925L248.422 10.4193ZM276.685 7.72394C275.501 7.31001 273.662 6.95384 272.093 6.95384C269.253 6.95384 267.463 8.30151 267.463 10.5444C267.463 12.5274 268.647 13.3552 271.188 13.8847C271.334 13.9151 271.479 13.944 271.621 13.9724C272.872 14.2224 273.913 14.4303 273.913 15.2516C273.913 15.9062 273.277 16.2335 272.074 16.2238C271.073 16.2046 269.581 15.9351 267.761 15.2516L267.126 17.7448C268.897 18.409 270.736 18.7266 272.189 18.7266C275.048 18.7266 276.935 17.4945 276.935 15.0687C276.935 12.8836 275.385 12.1424 273.046 11.6418C272.939 11.6193 272.835 11.5978 272.734 11.5769L272.733 11.5765H272.732C271.32 11.284 270.524 11.1191 270.524 10.4096C270.524 9.70693 271.121 9.40852 272.112 9.40852C273.085 9.40852 274.5 9.67805 276.088 10.1594L276.685 7.72394ZM280.218 7.2715C281.556 7.20412 283.048 7.13673 284.598 7.13673C287.601 7.13673 289.536 8.5229 289.536 11.1798C289.536 13.7691 287.591 15.4057 284.588 15.4057H283.019V18.4378H280.218V7.2715ZM283.028 9.4759V12.951H284.761C285.916 12.951 286.735 12.306 286.735 11.199C286.735 10.0631 285.916 9.44702 284.761 9.44702C284.184 9.44702 283.596 9.45664 283.028 9.4759ZM312.08 7.27154V13.7307L306.815 7.27154H304.225V18.4379H307.027V12.0365L312.302 18.4379H314.872V7.27154H312.08ZM318.597 7.26184C319.83 7.19446 321.254 7.12708 322.823 7.12708C326.519 7.12708 329.004 9.22558 328.993 12.7872C328.993 16.3778 326.51 18.5822 323.103 18.5822C321.418 18.5822 319.83 18.5149 318.597 18.4475V7.26184ZM321.408 16.012C321.995 16.0409 322.611 16.0409 323.179 16.0409C324.797 16.0409 326.096 14.7895 326.105 12.7584C326.105 10.7754 324.806 9.6395 322.948 9.6395C322.458 9.6395 321.928 9.6395 321.408 9.66838V16.012ZM353.232 7.72394C352.048 7.31001 350.21 6.95384 348.64 6.95384C345.801 6.95384 344.011 8.30151 344.011 10.5444C344.011 12.5274 345.194 13.3552 347.736 13.8847C347.882 13.9151 348.026 13.944 348.169 13.9724C349.419 14.2224 350.46 14.4303 350.46 15.2516C350.46 15.9062 349.824 16.2335 348.621 16.2238C347.62 16.2046 346.128 15.9351 344.309 15.2516L343.673 17.7448C345.444 18.409 347.284 18.7266 348.737 18.7266C351.596 18.7266 353.483 17.4945 353.483 15.0687C353.483 12.8836 351.932 12.1424 349.593 11.6418C349.486 11.6192 349.381 11.5976 349.28 11.5765H349.279C347.867 11.284 347.071 11.1191 347.071 10.4096C347.071 9.70693 347.668 9.40852 348.66 9.40852C349.632 9.40852 351.047 9.67805 352.636 10.1594L353.232 7.72394ZM361.328 14.6548H359.576V18.4379H356.775V7.27154H359.585V11.9113H360.134L363.84 7.27154H367.248L363.118 12.4119L367.508 18.4379H364.071L361.328 14.6548ZM295.1 11.6611V9.63955H300.875V7.26189H292.289V18.4283H300.875V16.0506H295.1V14.0291H299.922V11.6611H295.1ZM335.01 9.63955V11.6611H339.832V14.0291H335.01V16.0506H340.785V18.4283H332.199V7.26189H340.785V9.63955H335.01Z" fill="white"/>
</g>
<defs>
<clipPath id="clip0_2_1764">
<rect width="135.652" height="20.8696" fill="white" transform="translate(232 2.41028)"/>
</clipPath>
</defs>
</svg>
